<svg width="25" height="24" viewBox="0 0 25 24" fill="none" xmlns="http://www.w3.org/2000/svg">
<path d="M21.4136 16.5758L19.8744 15.4109L17.8218 15.494L17.2166 15.8405L20.239 18.1279C20.6678 18.4525 21.2782 18.3675 21.6023 17.9392C21.9267 17.5105 21.8422 16.9002 21.4136 16.5758Z" fill="#2E2E2E"/>
<path d="M7.74404 10.3566C8.67233 10.3566 9.42486 9.60405 9.42486 8.67575C9.42486 7.74746 8.67233 6.99493 7.74404 6.99493C6.81575 6.99493 6.06322 7.74746 6.06322 8.67575C6.06322 9.60405 6.81575 10.3566 7.74404 10.3566Z" fill="#2E2E2E"/>
<path d="M10.5133 7.7255L10.1295 9.46058C10.1295 9.46058 8.91523 10.5716 8.49 10.9686C8.03199 11.397 8.00791 12.1155 8.43626 12.5735C8.63238 12.7833 12.2569 16.659 12.4422 16.8571L12.4423 16.856C12.7454 17.1557 13.2221 17.2302 13.61 17.0081L17.6001 14.7239L21.0257 14.5851C21.5639 14.5633 21.9805 14.1092 21.9588 13.5733C21.937 13.0359 21.4836 12.6185 20.947 12.6403L17.2837 12.7887C17.1275 12.7949 16.9752 12.8389 16.8396 12.9164L12.643 15.3188L14.9371 13.2358L13.5566 11.7596L10.8774 12.1854L13.9826 10.9035C14.2277 10.7984 14.4107 10.5764 14.4607 10.3044L15.0582 7.05382C15.1395 6.61082 14.8444 6.19004 14.4068 6.10979C13.9679 6.02928 13.5438 6.32122 13.4629 6.76072C13.4629 6.76089 13.4629 6.76059 13.4629 6.76072C13.4032 7.08625 13.0184 9.18417 12.9567 9.52047L10.1219 10.7362L11.7962 9.43594L12.1631 7.77751C12.2056 7.58524 12.1767 7.38406 12.0819 7.21155L10.2467 3.87446C10.0309 3.482 9.5378 3.3388 9.14529 3.55459C8.75283 3.77043 8.60959 4.26354 8.82543 4.65605L10.5133 7.7255Z" fill="#2E2E2E"/>
<path d="M21.9595 19.4648H3.04046C2.742 19.4648 2.5 19.7068 2.5 20.0053C2.5 20.3038 2.742 20.5458 3.04046 20.5458H21.9595C22.258 20.5458 22.5 20.3038 22.5 20.0053C22.5 19.7068 22.258 19.4648 21.9595 19.4648Z" fill="#2E2E2E"/>
<path d="M6.74259 13.9681C6.54604 13.8324 6.27685 13.8816 6.14108 14.078C6.00532 14.2745 6.05457 14.5438 6.25099 14.6795L11.1254 18.0478C11.322 18.1836 11.5912 18.1342 11.7269 17.9379C11.8626 17.7414 11.8134 17.4721 11.617 17.3363L6.74259 13.9681Z" fill="#2E2E2E"/>
<path d="M6.00848 18.5639L9.48137 19.0068C9.71692 19.0371 9.93462 18.8706 9.96497 18.6327C9.9952 18.3958 9.82765 18.1793 9.5908 18.1491L6.11791 17.7061C5.88097 17.6755 5.66453 17.8434 5.63431 18.0803C5.60404 18.3172 5.77158 18.5337 6.00848 18.5639Z" fill="#2E2E2E"/>
</svg>
