<svg width="24" height="24" viewBox="0 0 24 24" fill="none" xmlns="http://www.w3.org/2000/svg">
<path d="M17.6248 18.75H4.87498C3.84149 18.75 3 17.9085 3 16.875V16.1251C3 14.6776 4.17749 13.5001 5.62497 13.5001H13.3874C13.5944 13.5001 13.7624 13.6681 13.7624 13.8751C13.7624 14.0821 13.5944 14.2501 13.3874 14.2501H5.62497C4.59148 14.2501 3.74999 15.0916 3.74999 16.1251V16.875C3.74999 17.4953 4.25474 18 4.87498 18H17.6248C18.2451 18 18.7498 17.4953 18.7498 16.875V16.1251C18.7498 15.6556 18.5751 15.2078 18.2571 14.8643C18.1161 14.7121 18.1258 14.4751 18.2781 14.3341C18.4288 14.1931 18.6673 14.2021 18.8083 14.3551C19.2538 14.8381 19.4998 15.4666 19.4998 16.1251V16.875C19.4998 17.9085 18.6583 18.75 17.6248 18.75Z" fill="#2E2E2E"/>
<path d="M4.49998 21C3.67274 21 3 20.3273 3 19.5V16.875C3 16.668 3.168 16.5 3.375 16.5C3.58199 16.5 3.74999 16.668 3.74999 16.875V19.5C3.74999 19.9133 4.08674 20.25 4.49998 20.25C4.91323 20.25 5.24998 19.9133 5.24998 19.5V18.375C5.24998 18.168 5.41797 18 5.62497 18C5.83197 18 5.99997 18.168 5.99997 18.375V19.5C5.99997 20.3273 5.32723 21 4.49998 21Z" fill="#2E2E2E"/>
<path d="M17.9998 21C17.1726 21 16.4999 20.3273 16.4999 19.5V18.375C16.4999 18.168 16.6679 18 16.8749 18C17.0819 18 17.2499 18.168 17.2499 18.375V19.5C17.2499 19.9133 17.5866 20.25 17.9998 20.25C18.4131 20.25 18.7498 19.9133 18.7498 19.5V16.875C18.7498 16.668 18.9178 16.5 19.1248 16.5C19.3318 16.5 19.4998 16.668 19.4998 16.875V19.5C19.4998 20.3273 18.8271 21 17.9998 21Z" fill="#2E2E2E"/>
<path d="M4.87498 14.2501C4.82698 14.2501 4.77823 14.2411 4.73098 14.2208C4.53973 14.1413 4.44973 13.9216 4.52923 13.7303L6.02172 10.1529C6.31497 9.45312 6.99221 9.00012 7.74745 9.00012H10.2899C10.4969 9.00012 10.6649 9.16812 10.6649 9.37512C10.6649 9.58212 10.4977 9.75012 10.2899 9.75012H7.74745C7.30195 9.75012 6.88721 10.0284 6.71396 10.4424L5.22148 14.0198C5.16073 14.1631 5.02123 14.2501 4.87498 14.2501Z" fill="#2E2E2E"/>
<path d="M7.87495 16.5H5.62497C5.41797 16.5 5.24998 16.332 5.24998 16.1251C5.24998 15.9181 5.41797 15.7501 5.62497 15.7501H7.87495C8.08195 15.7501 8.24994 15.9181 8.24994 16.1251C8.24994 16.332 8.08195 16.5 7.87495 16.5Z" fill="#2E2E2E"/>
<path d="M16.8749 16.5H14.6249C14.4179 16.5 14.2499 16.332 14.2499 16.1251C14.2499 15.9181 14.4179 15.7501 14.6249 15.7501H16.8749C17.0819 15.7501 17.2499 15.9181 17.2499 16.1251C17.2499 16.332 17.0819 16.5 16.8749 16.5Z" fill="#2E2E2E"/>
<path d="M16.4999 13.5001C16.4504 13.5001 16.4009 13.4903 16.3544 13.4701C16.1759 13.3958 11.9999 11.5906 11.9999 7.90214V4.76792C11.9999 4.60742 12.1027 4.46417 12.2549 4.41242L16.3799 3.01969C16.4579 2.99344 16.5419 2.99344 16.6199 3.01969L20.7448 4.41242C20.8971 4.46417 20.9998 4.60742 20.9998 4.76792V7.90214C20.9998 11.5906 16.8239 13.3958 16.6454 13.4708C16.5989 13.4903 16.5494 13.5001 16.4999 13.5001ZM12.7499 5.03717V7.90214C12.7499 10.7409 15.7911 12.3706 16.4999 12.7126C17.2079 12.3698 20.2498 10.7341 20.2498 7.90214V5.03717L16.4999 3.77118L12.7499 5.03717Z" fill="#2E2E2E"/>
<path d="M16.1249 9.75012C16.1181 9.75012 16.1106 9.75012 16.1039 9.74937C15.9974 9.74337 15.8984 9.69237 15.8316 9.60912L14.3316 7.73414C14.2026 7.57214 14.2289 7.33664 14.3901 7.20689C14.5521 7.07715 14.7876 7.10415 14.9174 7.26539L16.1556 8.81338L18.4843 6.48465C18.6306 6.3384 18.8683 6.3384 19.0146 6.48465C19.1608 6.6309 19.1608 6.86865 19.0146 7.0149L16.3896 9.63987C16.3199 9.71112 16.2239 9.75012 16.1249 9.75012Z" fill="#2E2E2E"/>
<path d="M3 16.875C3 17.9085 3.84149 18.75 4.87498 18.75H17.6248C18.6583 18.75 19.4998 17.9085 19.4998 16.875M3 16.875V16.1251C3 14.6776 4.17749 13.5001 5.62497 13.5001H13.3874C13.5944 13.5001 13.7624 13.6681 13.7624 13.8751C13.7624 14.0821 13.5944 14.2501 13.3874 14.2501H5.62497C4.59148 14.2501 3.74999 15.0916 3.74999 16.1251V16.875M3 16.875V19.5C3 20.3273 3.67274 21 4.49998 21C5.32723 21 5.99997 20.3273 5.99997 19.5V18.375C5.99997 18.168 5.83197 18 5.62497 18C5.41797 18 5.24998 18.168 5.24998 18.375V19.5C5.24998 19.9133 4.91323 20.25 4.49998 20.25C4.08674 20.25 3.74999 19.9133 3.74999 19.5V16.875M3 16.875C3 16.668 3.168 16.5 3.375 16.5C3.58199 16.5 3.74999 16.668 3.74999 16.875M3.74999 16.875C3.74999 17.4953 4.25474 18 4.87498 18H17.6248C18.2451 18 18.7498 17.4953 18.7498 16.875M18.7498 16.875V16.1251C18.7498 15.6556 18.5751 15.2078 18.2571 14.8643C18.1161 14.7121 18.1258 14.4751 18.2781 14.3341C18.4288 14.1931 18.6673 14.2021 18.8083 14.3551C19.2538 14.8381 19.4998 15.4666 19.4998 16.1251V16.875M18.7498 16.875V19.5C18.7498 19.9133 18.4131 20.25 17.9998 20.25C17.5866 20.25 17.2499 19.9133 17.2499 19.5V18.375C17.2499 18.168 17.0819 18 16.8749 18C16.6679 18 16.4999 18.168 16.4999 18.375V19.5C16.4999 20.3273 17.1726 21 17.9998 21C18.8271 21 19.4998 20.3273 19.4998 19.5V16.875M18.7498 16.875C18.7498 16.668 18.9178 16.5 19.1248 16.5C19.3318 16.5 19.4998 16.668 19.4998 16.875M4.87498 14.2501C4.82698 14.2501 4.77823 14.2411 4.73098 14.2208C4.53973 14.1413 4.44973 13.9216 4.52923 13.7303L6.02172 10.1529C6.31497 9.45312 6.99221 9.00012 7.74745 9.00012H10.2899C10.4969 9.00012 10.6649 9.16812 10.6649 9.37512C10.6649 9.58212 10.4977 9.75012 10.2899 9.75012H7.74745C7.30195 9.75012 6.88721 10.0284 6.71396 10.4424L5.22148 14.0198C5.16073 14.1631 5.02123 14.2501 4.87498 14.2501ZM7.87495 16.5H5.62497C5.41797 16.5 5.24998 16.332 5.24998 16.1251C5.24998 15.9181 5.41797 15.7501 5.62497 15.7501H7.87495C8.08195 15.7501 8.24994 15.9181 8.24994 16.1251C8.24994 16.332 8.08195 16.5 7.87495 16.5ZM16.8749 16.5H14.6249C14.4179 16.5 14.2499 16.332 14.2499 16.1251C14.2499 15.9181 14.4179 15.7501 14.6249 15.7501H16.8749C17.0819 15.7501 17.2499 15.9181 17.2499 16.1251C17.2499 16.332 17.0819 16.5 16.8749 16.5ZM16.4999 13.5001C16.4504 13.5001 16.4009 13.4903 16.3544 13.4701C16.1759 13.3958 11.9999 11.5906 11.9999 7.90214V4.76792C11.9999 4.60742 12.1027 4.46417 12.2549 4.41242L16.3799 3.01969C16.4579 2.99344 16.5419 2.99344 16.6199 3.01969L20.7448 4.41242C20.8971 4.46417 20.9998 4.60742 20.9998 4.76792V7.90214C20.9998 11.5906 16.8239 13.3958 16.6454 13.4708C16.5989 13.4903 16.5494 13.5001 16.4999 13.5001ZM12.7499 5.03717V7.90214C12.7499 10.7409 15.7911 12.3706 16.4999 12.7126C17.2079 12.3698 20.2498 10.7341 20.2498 7.90214V5.03717L16.4999 3.77118L12.7499 5.03717ZM16.1249 9.75012C16.1181 9.75012 16.1106 9.75012 16.1039 9.74937C15.9974 9.74337 15.8984 9.69237 15.8316 9.60912L14.3316 7.73414C14.2026 7.57214 14.2289 7.33664 14.3901 7.20689C14.5521 7.07715 14.7876 7.10415 14.9174 7.26539L16.1556 8.81338L18.4843 6.48465C18.6306 6.3384 18.8683 6.3384 19.0146 6.48465C19.1608 6.6309 19.1608 6.86865 19.0146 7.0149L16.3896 9.63987C16.3199 9.71112 16.2239 9.75012 16.1249 9.75012Z" stroke="#2E2E2E" stroke-width="0.5"/>
</svg>
