<svg width="25" height="24" viewBox="0 0 25 24" fill="none" xmlns="http://www.w3.org/2000/svg">
<g clip-path="url(#clip0_85_6324)">
<mask id="mask0_85_6324" style="mask-type:luminance" maskUnits="userSpaceOnUse" x="0" y="0" width="25" height="24">
<path d="M0.5 0H24.5V24H0.5V0Z" fill="white"/>
</mask>
<g mask="url(#mask0_85_6324)">
<path d="M5.26847 11.8759V15.7327C5.26847 16.533 5.91448 17.179 6.71477 17.179C7.51506 17.179 8.16108 16.533 8.16108 15.7327V11.8759C8.16108 11.0756 7.51506 10.4295 6.71477 10.4295C5.91448 10.4295 5.26847 11.0756 5.26847 11.8759ZM11.0537 11.8759V15.7327C11.0537 16.533 11.6997 17.179 12.5 17.179C13.3003 17.179 13.9463 16.533 13.9463 15.7327V11.8759C13.9463 11.0756 13.3003 10.4295 12.5 10.4295C11.6997 10.4295 11.0537 11.0756 11.0537 11.8759ZM4.78636 22H20.2136C21.0139 22 21.6599 21.354 21.6599 20.5537C21.6599 19.7534 21.0139 19.1074 20.2136 19.1074H4.78636C3.98607 19.1074 3.34006 19.7534 3.34006 20.5537C3.34006 21.354 3.98607 22 4.78636 22ZM16.8389 11.8759V15.7327C16.8389 16.533 17.4849 17.179 18.2852 17.179C19.0855 17.179 19.7315 16.533 19.7315 15.7327V11.8759C19.7315 11.0756 19.0855 10.4295 18.2852 10.4295C17.4849 10.4295 16.8389 11.0756 16.8389 11.8759ZM11.6033 2.22418L3.98607 6.23527C3.59075 6.43775 3.34006 6.85236 3.34006 7.29589C3.34006 7.96119 3.88001 8.50115 4.54531 8.50115H20.4643C21.12 8.50115 21.6599 7.96119 21.6599 7.29589C21.6599 6.85236 21.4092 6.43775 21.0139 6.23527L13.3967 2.22418C12.8375 1.92527 12.1625 1.92527 11.6033 2.22418Z" fill="#4B51B5"/>
</g>
</g>
<defs>
<clipPath id="clip0_85_6324">
<rect width="24" height="24" fill="white" transform="translate(0.5)"/>
</clipPath>
</defs>
</svg>
