<svg width="25" height="24" viewBox="0 0 25 24" fill="none" xmlns="http://www.w3.org/2000/svg">
<path d="M14.8348 18.6354C14.8348 19.5309 14.3574 20.2162 13.582 20.6642C12.8069 21.1119 11.8519 21.1119 11.0782 20.6642C10.3026 20.2162 9.82546 19.5309 9.82546 18.6354" fill="#2E2E2E"/>
<path d="M12.3295 3C13.0127 3 13.563 3.4212 13.563 4.06893C13.563 4.47662 13.5772 4.78082 13.8334 4.85874C16.012 5.5166 17.409 7.05859 17.409 9.06111V12.4269C17.409 13.9689 18.0399 14.281 18.8338 14.8709C19.9835 15.7236 19.7211 17.4994 18.4017 17.4982H6.25778C4.93845 17.4994 4.67598 15.7236 5.82572 14.8709C6.61867 14.281 7.25048 13.9689 7.25048 12.4269V9.06111C7.25048 7.05859 8.64749 5.5166 10.8261 4.85874C11.0816 4.78082 11.0965 4.47662 11.0965 4.06893C11.0968 3.4212 11.6473 3 12.3295 3Z" fill="#2E2E2E"/>
</svg>
