<svg width="25" height="24" viewBox="0 0 25 24" fill="none" xmlns="http://www.w3.org/2000/svg">
<path d="M6.1 19.2001H18.9C19.7837 19.2001 20.5 18.4837 20.5 17.6V9.28005C20.5 8.39639 19.7837 7.68005 18.9 7.68005H16.5L14.7386 5.14373C14.5892 4.92844 14.3437 4.80005 14.0816 4.80005H10.9184C10.6563 4.80005 10.4108 4.92844 10.2613 5.14373L8.5 7.68005H6.1C5.21634 7.68005 4.5 8.39639 4.5 9.28005V17.6C4.5 18.4837 5.21634 19.2001 6.1 19.2001Z" stroke="#2E2E2E" stroke-width="1.3" stroke-linecap="round" stroke-linejoin="round"/>
<path d="M15.7 12.8C15.7 14.5673 14.2673 16 12.5 16C10.7327 16 9.3 14.5673 9.3 12.8C9.3 11.0328 10.7327 9.60005 12.5 9.60005C14.2673 9.60005 15.7 11.0328 15.7 12.8Z" stroke="#2E2E2E" stroke-width="1.3" stroke-linecap="round" stroke-linejoin="round"/>
</svg>
