<svg width="25" height="24" viewBox="0 0 25 24" fill="none" xmlns="http://www.w3.org/2000/svg">
<path d="M20.375 12C20.375 16.4183 16.7933 20 12.375 20C7.95672 20 4.375 16.4183 4.375 12C4.375 7.58172 7.95672 4 12.375 4C16.7933 4 20.375 7.58172 20.375 12Z" fill="white"/>
<path fill-rule="evenodd" clip-rule="evenodd" d="M12.375 4C16.7933 4 20.375 7.58172 20.375 12C20.375 16.4183 16.7933 20 12.375 20C7.95672 20 4.375 16.4183 4.375 12C4.375 7.58172 7.95672 4 12.375 4ZM10.7137 14.5985L8.7551 12.6382C8.42143 12.3044 8.42136 11.7599 8.7551 11.4261C9.08892 11.0924 9.6358 11.0944 9.96718 11.4261L11.348 12.808L14.7829 9.37302C15.1168 9.03921 15.6613 9.03921 15.995 9.37302C16.3288 9.70677 16.3284 10.2518 15.995 10.5851L11.953 14.6271C11.6197 14.9604 11.0747 14.9609 10.741 14.6271C10.7316 14.6177 10.7225 14.6082 10.7137 14.5985Z" fill="#2A5312"/>
</svg>
