<svg width="24" height="24" viewBox="0 0 24 24" fill="none" xmlns="http://www.w3.org/2000/svg">
<path d="M20 12C20 16.4183 16.4183 20 12 20C7.58172 20 4 16.4183 4 12C4 7.58172 7.58172 4 12 4C16.4183 4 20 7.58172 20 12Z" fill="white"/>
<path fill-rule="evenodd" clip-rule="evenodd" d="M12 4C16.4183 4 20 7.58172 20 12C20 16.4183 16.4183 20 12 20C7.58172 20 4 16.4183 4 12C4 7.58172 7.58172 4 12 4ZM10.3387 14.5985L8.3801 12.6382C8.04643 12.3044 8.04636 11.7599 8.3801 11.4261C8.71392 11.0924 9.2608 11.0944 9.59218 11.4261L10.973 12.808L14.4079 9.37302C14.7418 9.03921 15.2863 9.03921 15.62 9.37302C15.9538 9.70677 15.9534 10.2518 15.62 10.5851L11.578 14.6271C11.2447 14.9604 10.6997 14.9609 10.366 14.6271C10.3566 14.6177 10.3475 14.6082 10.3387 14.5985Z" fill="#1FB266"/>
</svg>
