<svg width="24" height="24" viewBox="0 0 24 24" fill="none" xmlns="http://www.w3.org/2000/svg">
<path fill-rule="evenodd" clip-rule="evenodd" d="M20 12C20 16.4183 16.4183 20 12 20C7.58172 20 4 16.4183 4 12C4 7.58172 7.58172 4 12 4C16.4183 4 20 7.58172 20 12ZM14.55 15.65C14.8499 15.9499 15.35 15.9499 15.65 15.65C15.9499 15.3499 15.9499 14.8499 15.65 14.55L13.1 12L15.65 9.44999C15.9499 9.15 15.9499 8.64998 15.65 8.34999C15.35 8.05 14.8499 8.05 14.55 8.34999L12 10.9L9.44999 8.34999C9.15 8.05 8.64998 8.05 8.34999 8.34999C8.05 8.64998 8.05 9.15 8.34999 9.44999L10.9 12L8.34999 14.55C8.05 14.8499 8.05 15.35 8.34999 15.65C8.64998 15.9499 9.15 15.9499 9.44999 15.65L12 13.1L14.55 15.65Z" fill="#2E2E2E"/>
</svg>
