<svg width="24" height="24" viewBox="0 0 24 24" fill="none" xmlns="http://www.w3.org/2000/svg">
<path fill-rule="evenodd" clip-rule="evenodd" d="M12.2197 14.4697C12.5126 14.1768 12.9874 14.1768 13.2803 14.4697L16.5 17.6894L19.7197 14.4697C20.0126 14.1768 20.4874 14.1768 20.7803 14.4697C21.0732 14.7626 21.0732 15.2374 20.7803 15.5303L17.0303 19.2803C16.7374 19.5732 16.2626 19.5732 15.9697 19.2803L12.2197 15.5303C11.9268 15.2374 11.9268 14.7626 12.2197 14.4697Z" fill="#2E2E2E"/>
<path fill-rule="evenodd" clip-rule="evenodd" d="M16.5 9C16.9142 9 17.25 9.33577 17.25 9.75V18.75C17.25 19.1642 16.9142 19.5 16.5 19.5C16.0858 19.5 15.75 19.1642 15.75 18.75V9.75C15.75 9.33577 16.0858 9 16.5 9Z" fill="#2E2E2E"/>
<path fill-rule="evenodd" clip-rule="evenodd" d="M3 11.25C3 10.8358 3.33579 10.5 3.75 10.5H10.5C10.9142 10.5 11.25 10.8358 11.25 11.25C11.25 11.6642 10.9142 12 10.5 12H3.75C3.33579 12 3 11.6642 3 11.25Z" fill="#2E2E2E"/>
<path fill-rule="evenodd" clip-rule="evenodd" d="M3 5.25C3 4.83579 3.33579 4.5 3.75 4.5H16.5C16.9142 4.5 17.25 4.83579 17.25 5.25C17.25 5.66421 16.9142 6 16.5 6H3.75C3.33579 6 3 5.66421 3 5.25Z" fill="#2E2E2E"/>
<path fill-rule="evenodd" clip-rule="evenodd" d="M3 17.25C3 16.8358 3.33579 16.5 3.75 16.5H9C9.41423 16.5 9.75 16.8358 9.75 17.25C9.75 17.6642 9.41423 18 9 18H3.75C3.33579 18 3 17.6642 3 17.25Z" fill="#2E2E2E"/>
</svg>
