<svg width="24" height="24" viewBox="0 0 24 24" fill="none" xmlns="http://www.w3.org/2000/svg">
<path d="M4.77344 12.0001C4.77344 8.95791 6.64418 6.39045 9.23745 5.3185L10.0699 3.82397C6.3975 4.68311 3.60156 7.99033 3.60156 12.0001C3.60156 15.7732 6.09714 18.9937 9.5671 20.0402L9.65538 18.8379C6.77062 17.8501 4.77344 15.122 4.77344 12.0001Z" fill="#2E2E2E"/>
<path d="M14.4327 3.95991L14.3444 5.16225C17.2292 6.14998 19.2264 8.87806 19.2264 12.0001C19.2264 15.0392 17.3578 17.6088 14.7624 18.6816L13.9299 20.1761C17.6024 19.317 20.3982 16.0098 20.3982 12.0001C20.3982 8.22697 17.9027 5.00635 14.4327 3.95991Z" fill="#2E2E2E"/>
<path d="M17.5831 10.6136C17.4779 10.4346 17.2857 10.3246 17.0779 10.3246H12.7906L13.3554 2.62897C13.3755 2.35479 13.2023 2.1035 12.939 2.02471C12.6756 1.94577 12.3929 2.06077 12.2591 2.30096L6.40996 12.8044C6.3089 12.9859 6.31148 13.2072 6.41671 13.3863C6.52195 13.5654 6.71417 13.6754 6.92187 13.6754H11.2093L10.6444 21.3711C10.6243 21.6452 10.7975 21.8965 11.0609 21.9753C11.3264 22.0548 11.6082 21.9371 11.7407 21.699L17.5899 11.1956C17.6909 11.0142 17.6883 10.7927 17.5831 10.6136Z" fill="#2E2E2E"/>
</svg>
