<svg width="24" height="24" viewBox="0 0 24 24" fill="none" xmlns="http://www.w3.org/2000/svg">
<path d="M20.5005 8.88183C20.2929 8.4666 19.9737 8.1174 19.5788 7.87333C19.1839 7.62927 18.7289 7.5 18.2646 7.5H15.9499C15.834 6.93573 15.5271 6.42869 15.0809 6.06436C14.6347 5.70003 14.0765 5.50071 13.5005 5.5H5.50049C5.36788 5.5 5.2407 5.55268 5.14693 5.64645C5.05316 5.74022 5.00049 5.86739 5.00049 6C5.00049 6.13261 5.05316 6.25979 5.14693 6.35355C5.2407 6.44732 5.36788 6.5 5.50049 6.5H13.5005C13.8983 6.5 14.2798 6.65804 14.5611 6.93934C14.8425 7.22064 15.0005 7.60218 15.0005 8V15.5H10.9499C10.879 15.1559 10.7366 14.8306 10.532 14.545C10.3274 14.2595 10.0651 14.0201 9.76209 13.8423C9.45908 13.6645 9.12212 13.5524 8.77302 13.5131C8.42392 13.4738 8.07046 13.5082 7.73552 13.6142C7.34335 13.7356 6.98788 13.9534 6.70156 14.2476C6.41525 14.5418 6.20723 14.9031 6.09652 15.2984C6.00239 15.622 5.97463 15.9614 6.0149 16.296C6.05517 16.6307 6.16264 16.9537 6.33086 17.2458C6.49908 17.5379 6.72458 17.793 6.99383 17.9957C7.26307 18.1985 7.57051 18.3448 7.89769 18.4258C8.22487 18.5068 8.56504 18.5208 8.89779 18.4671C9.23054 18.4134 9.549 18.293 9.83406 18.1131C10.1191 17.9333 10.3649 17.6977 10.5567 17.4205C10.7484 17.1433 10.8822 16.8302 10.9499 16.5H15.051C15.1663 17.0646 15.473 17.572 15.9194 17.9364C16.3657 18.3008 16.9242 18.4999 17.5005 18.4999C18.0767 18.4999 18.6352 18.3008 19.0815 17.9364C19.5279 17.572 19.8346 17.0646 19.9499 16.5H20.5005C20.8983 16.5 21.2798 16.342 21.5611 16.0607C21.8424 15.7794 22.0005 15.3978 22.0005 15V12.1179C22.0005 11.9627 21.9643 11.8095 21.8949 11.6707L20.5005 8.88183ZM8.50049 17.5C8.20381 17.5 7.9138 17.412 7.66713 17.2472C7.42046 17.0824 7.2282 16.8481 7.11467 16.574C7.00114 16.2999 6.97143 15.9983 7.02931 15.7074C7.08719 15.4164 7.23005 15.1491 7.43983 14.9393C7.6496 14.7296 7.91688 14.5867 8.20785 14.5288C8.49882 14.4709 8.80042 14.5007 9.07451 14.6142C9.3486 14.7277 9.58287 14.92 9.74769 15.1666C9.91251 15.4133 10.0005 15.7033 10.0005 16C10.0001 16.3977 9.84188 16.779 9.56067 17.0602C9.27946 17.3414 8.89818 17.4996 8.50049 17.5ZM16.0005 8.5H18.2642C18.5429 8.49904 18.8164 8.5762 19.0536 8.72275C19.2907 8.86929 19.4821 9.07935 19.606 9.3291L20.6914 11.5H16.0005V8.5ZM17.5005 17.5C17.2038 17.5 16.9138 17.412 16.6671 17.2472C16.4205 17.0824 16.2282 16.8481 16.1147 16.574C16.0011 16.2999 15.9714 15.9983 16.0293 15.7074C16.0872 15.4164 16.23 15.1491 16.4398 14.9393C16.6496 14.7296 16.9169 14.5867 17.2079 14.5288C17.4988 14.4709 17.8004 14.5007 18.0745 14.6142C18.3486 14.7277 18.5829 14.92 18.7477 15.1666C18.9125 15.4133 19.0005 15.7033 19.0005 16C19.0001 16.3977 18.8419 16.779 18.5607 17.0602C18.2795 17.3414 17.8982 17.4996 17.5005 17.5ZM21.0005 15C21.0003 15.1326 20.9476 15.2596 20.8538 15.3534C20.7601 15.4471 20.633 15.4998 20.5005 15.5H19.9499C19.834 14.9357 19.5271 14.4287 19.0809 14.0644C18.6347 13.7 18.0765 13.5007 17.5005 13.5C16.9578 13.5018 16.4308 13.6819 16.0005 14.0126V12.5H21.0005V15Z" fill="#2E2E2E"/>
<path d="M8.15262 8.50006H3.91574C3.691 8.50006 3.47546 8.55274 3.31655 8.64651C3.15764 8.74027 3.06836 8.86745 3.06836 9.00006C3.06836 9.13267 3.15764 9.25984 3.31655 9.35361C3.47546 9.44738 3.691 9.50006 3.91574 9.50006H8.15262C8.37736 9.50006 8.59289 9.44738 8.75181 9.35361C8.91072 9.25984 9 9.13267 9 9.00006C9 8.86745 8.91072 8.74027 8.75181 8.64651C8.59289 8.55274 8.37736 8.50006 8.15262 8.50006Z" fill="#2E2E2E"/>
<path d="M7.41699 11.0001H3.08496C2.79773 11.0001 2.52226 11.0527 2.31916 11.1465C2.11606 11.2403 2.00195 11.3674 2.00195 11.5001C2.00195 11.6327 2.11606 11.7598 2.31916 11.8536C2.52226 11.9474 2.79773 12.0001 3.08496 12.0001H7.41699C7.70422 12.0001 7.97969 11.9474 8.18279 11.8536C8.3859 11.7598 8.5 11.6327 8.5 11.5001C8.5 11.3674 8.3859 11.2403 8.18279 11.1465C7.97969 11.0527 7.70422 11.0001 7.41699 11.0001Z" fill="#2E2E2E"/>
</svg>
