<svg width="25" height="24" viewBox="0 0 25 24" fill="none" xmlns="http://www.w3.org/2000/svg">
<path d="M12.2443 4.7867C7.88492 1.05161 2.34202 4.33337 2.25113 8.78233C2.22796 9.91616 2.56208 11.0206 3.22715 12.0388H7.53791L8.30465 10.7869C8.52729 10.4235 9.06608 10.4118 9.30133 10.7741L10.9191 13.2644L13.2772 8.38777C13.4829 7.96225 14.0957 7.94875 14.3226 8.36137L16.344 12.0388H21.2615C24.9043 6.46168 17.7049 0.108169 12.2443 4.7867Z" fill="#2E2E2E"/>
<path d="M15.4782 12.8848L13.8402 9.90491L11.5239 14.695C11.3268 15.1025 10.7472 15.1379 10.5001 14.7574L8.82172 12.1738L8.37203 12.908C8.26614 13.0809 8.07545 13.1866 7.86965 13.1866H4.15399C4.27047 13.3061 3.64969 12.6992 11.8311 20.6721C12.0596 20.8948 12.4289 20.8948 12.6575 20.6721C20.713 12.8218 20.2183 13.3058 20.3346 13.1866H15.994C15.7785 13.1867 15.5803 13.0707 15.4782 12.8848Z" fill="#2E2E2E"/>
</svg>
