<svg width="25" height="27" viewBox="0 0 25 27" fill="none" xmlns="http://www.w3.org/2000/svg">
<path d="M18.2822 7.34303C15.158 4.21917 10.0926 4.21882 6.96803 7.34303C3.84382 10.4672 3.84417 15.5327 6.96803 18.6572C10.0922 21.7807 15.1577 21.7811 18.2822 18.6572C21.4061 15.5327 21.4057 10.4676 18.2822 7.34303ZM13.6683 16.4784C13.6683 17.0548 13.2011 17.5219 12.6248 17.5219C12.0484 17.5219 11.5813 17.0548 11.5813 16.4784V12.3045C11.5813 11.7281 12.0484 11.261 12.6248 11.261C13.2011 11.261 13.6683 11.7281 13.6683 12.3045V16.4784ZM12.6063 10.5208C12.0053 10.5208 11.6046 10.0951 11.6171 9.56948C11.6046 9.01852 12.0053 8.60565 12.6185 8.60565C13.2321 8.60565 13.6203 9.01887 13.6331 9.56948C13.6328 10.0951 13.2324 10.5208 12.6063 10.5208Z" fill="#434BDB"/>
</svg>
