<svg width="24" height="24" viewBox="0 0 24 24" fill="none" xmlns="http://www.w3.org/2000/svg">
<path d="M11.9957 16.1521C11.0398 16.1521 10.2622 16.9272 10.2622 17.8795C10.2622 18.8321 11.0398 19.6075 11.9957 19.6075C12.9519 19.6075 13.7296 18.8321 13.7296 17.8795C13.7296 16.9272 12.9518 16.1521 11.9957 16.1521Z" fill="#2E2E2E"/>
<path d="M16.2253 13.7985C15.0967 12.6705 13.5944 12.049 11.9957 12.049C10.4032 12.049 8.905 12.6664 7.77669 13.7873C7.32099 14.2408 7.3202 14.9796 7.7748 15.4339C7.99563 15.6551 8.28966 15.7765 8.60261 15.7765C8.91414 15.7765 9.20707 15.6557 9.42758 15.4365C10.1142 14.7541 11.0263 14.3782 11.9957 14.3782C12.9688 14.3782 13.8834 14.7564 14.5705 15.4429C14.7913 15.6634 15.0852 15.7852 15.3978 15.7852C15.7097 15.7852 16.0024 15.6644 16.2231 15.4451C16.6794 14.9916 16.6802 14.2531 16.2253 13.7985Z" fill="#2E2E2E"/>
<path d="M21.6586 8.38315C19.0783 5.80921 15.6464 4.39209 11.9957 4.39209C8.34991 4.39209 4.92147 5.8059 2.34198 8.37372C1.88627 8.82722 1.88596 9.56607 2.34135 10.0204C2.56202 10.2404 2.85557 10.3614 3.16789 10.3614C3.48006 10.3614 3.77329 10.2409 3.99397 10.021C6.13211 7.89278 8.97377 6.72047 11.9957 6.72047C15.0221 6.72047 17.8666 7.89514 20.0052 10.029C20.2259 10.2492 20.5199 10.3707 20.8321 10.3707C21.1441 10.3707 21.4373 10.2495 21.6578 10.03C22.1137 9.57612 22.1142 8.837 21.6586 8.38315Z" fill="#2E2E2E"/>
<path d="M18.8731 11.1587C17.0364 9.32626 14.594 8.31721 11.9957 8.31721C9.40219 8.31721 6.9634 9.32311 5.12827 11.1491C4.90728 11.3688 4.78566 11.6611 4.78519 11.9723C4.78519 12.2832 4.90633 12.5758 5.12701 12.7959C5.34768 13.0161 5.64139 13.1375 5.95371 13.1375C6.26556 13.1375 6.5588 13.0164 6.77979 12.7971C8.17388 11.4101 10.0264 10.6461 11.9957 10.6461C13.9692 10.6461 15.8242 11.4128 17.2192 12.8046C17.4402 13.0251 17.7338 13.1465 18.0462 13.1465C18.3583 13.1465 18.6516 13.0254 18.872 12.8058C19.0927 12.5861 19.2146 12.2938 19.2148 11.9826C19.2151 11.6714 19.0936 11.3791 18.8731 11.1587Z" fill="#2E2E2E"/>
</svg>
