<svg width="24" height="24" viewBox="0 0 24 24" fill="none" xmlns="http://www.w3.org/2000/svg">
<path d="M20.3333 2.83325H3.66668C2.74789 2.83325 2 3.58075 2 4.49993V16.1666C2 17.0858 2.74789 17.8333 3.66668 17.8333H9.50186C9.48436 18.498 9.35741 19.5614 8.88069 20.0635C8.70573 20.2474 8.50553 20.3333 8.24999 20.3333C8.01968 20.3333 7.83331 20.5196 7.83331 20.7499C7.83331 20.9802 8.01968 21.1666 8.24999 21.1666H15.75C15.9803 21.1666 16.1667 20.9802 16.1667 20.7499C16.1667 20.5196 15.9803 20.3333 15.75 20.3333C15.4944 20.3333 15.2942 20.2478 15.1201 20.0639C14.6445 19.5643 14.5168 18.4994 14.4986 17.8333H20.3333C21.2521 17.8333 22 17.0858 22 16.1666V4.49993C22 3.58075 21.2521 2.83325 20.3333 2.83325ZM12 17.0023C11.5394 17.0023 11.1642 16.6272 11.1642 16.1665C11.1642 15.7059 11.5394 15.3308 12 15.3308C12.4606 15.3308 12.8358 15.7059 12.8358 16.1665C12.8358 16.6272 12.4606 17.0023 12 17.0023ZM3.66668 14.4999V4.49993H20.3333L20.334 14.4999H3.66668Z" fill="#2E2E2E"/>
</svg>
