<svg width="25" height="24" viewBox="0 0 25 24" fill="none" xmlns="http://www.w3.org/2000/svg">
<path d="M11.5942 13.4058V14.7257C11.4522 14.6832 11.3277 14.596 11.2392 14.4772C11.1507 14.3583 11.1029 14.214 11.1029 14.0657C11.1029 13.9175 11.1507 13.7732 11.2392 13.6543C11.3277 13.5354 11.4522 13.4483 11.5942 13.4058Z" fill="#2E2E2E"/>
<path d="M12.737 16.1314C12.879 16.174 13.0036 16.2611 13.0921 16.38C13.1806 16.4989 13.2284 16.6432 13.2284 16.7914C13.2284 16.9397 13.1806 17.0839 13.0921 17.2028C13.0036 17.3217 12.879 17.4089 12.737 17.4514V16.1314Z" fill="#2E2E2E"/>
<path d="M14.3827 8.30866C15.0649 7.63467 15.6705 6.88727 16.1884 6.08012C16.6821 5.19689 17.0659 4.25658 17.3313 3.28015C17.3941 3.08015 17.4513 2.90301 17.5027 2.75444C17.5442 2.63192 17.5428 2.49896 17.4989 2.37732C17.4549 2.25568 17.371 2.15257 17.2608 2.08486C17.1506 2.01715 17.0206 1.98885 16.8923 2.00461C16.7639 2.02036 16.6447 2.07924 16.5541 2.17159C16.4172 2.31038 16.2533 2.41954 16.0724 2.49228C15.8915 2.56503 15.6976 2.5998 15.5028 2.59444C15.3109 2.57697 15.1263 2.51218 14.9655 2.40587C14.6387 2.13842 14.228 1.99476 13.8057 2.00016C13.385 1.99453 12.976 2.13829 12.6514 2.40587C12.5176 2.52722 12.3435 2.59443 12.1628 2.59443C11.9822 2.59443 11.8081 2.52722 11.6743 2.40587C11.3458 2.14323 10.9377 2.00016 10.5171 2.00016C10.0966 2.00016 9.6885 2.14323 9.36001 2.40587C9.28508 2.46607 9.20246 2.51603 9.11433 2.55441C9.09148 2.56584 8.9885 2.57155 8.86852 2.59441C8.43985 2.52684 8.03399 2.35624 7.68578 2.09727C7.58665 2.0316 7.46949 1.99851 7.35065 2.00261C7.23181 2.00671 7.11721 2.0478 7.02285 2.12015C6.92848 2.1925 6.85905 2.2925 6.82423 2.4062C6.78942 2.5199 6.79096 2.64163 6.82864 2.75441C6.87998 2.90298 6.93718 3.08012 6.99996 3.28012C7.26536 4.25653 7.64916 5.19683 8.1428 6.08009C8.66072 6.88724 9.26633 7.63464 9.94859 8.30864C8.06861 9.65148 4.22293 12.8457 4.08008 16.6743C4.10406 18.1158 4.50386 19.526 5.23994 20.7656C5.45809 21.1432 5.77233 21.4564 6.1507 21.6731C6.52908 21.8899 6.95811 22.0027 7.39419 21.9999H16.9371C17.3731 22.0027 17.8022 21.89 18.1805 21.6732C18.5589 21.4564 18.8732 21.1433 19.0913 20.7657C19.8274 19.5261 20.2272 18.1158 20.2512 16.6743C20.1083 12.8458 16.2627 9.65151 14.3827 8.30866ZM14.3712 16.7886C14.3479 17.2376 14.1739 17.6656 13.8774 18.0036C13.5809 18.3415 13.1792 18.5698 12.737 18.6514V19.1428C12.737 19.2944 12.6768 19.4397 12.5697 19.5469C12.4625 19.6541 12.3172 19.7143 12.1656 19.7143C12.0141 19.7143 11.8687 19.6541 11.7616 19.5469C11.6544 19.4397 11.5942 19.2944 11.5942 19.1428V18.6514C11.1521 18.5698 10.7504 18.3415 10.4539 18.0036C10.1574 17.6656 9.98339 17.2376 9.96001 16.7886C9.96001 16.637 10.0202 16.4917 10.1274 16.3845C10.2345 16.2774 10.3799 16.2172 10.5314 16.2172C10.683 16.2172 10.8283 16.2774 10.9355 16.3845C11.0427 16.4917 11.1029 16.637 11.1029 16.7886C11.1149 16.9339 11.1673 17.0729 11.2541 17.19C11.3409 17.3071 11.4587 17.3977 11.5942 17.4514V15.9257C11.1525 15.8453 10.7509 15.6182 10.4543 15.2812C10.1578 14.9442 9.98359 14.5169 9.96001 14.0686C9.98339 13.6196 10.1574 13.1916 10.4539 12.8536C10.7504 12.5156 11.1521 12.2874 11.5942 12.2058V11.7143C11.5942 11.5628 11.6544 11.4174 11.7616 11.3103C11.8687 11.2031 12.0141 11.1429 12.1656 11.1429C12.3172 11.1429 12.4625 11.2031 12.5697 11.3103C12.6768 11.4174 12.737 11.5628 12.737 11.7143V12.2058C13.1792 12.2874 13.5809 12.5156 13.8774 12.8536C14.1739 13.1916 14.3479 13.6196 14.3712 14.0686C14.3712 14.2202 14.311 14.3655 14.2039 14.4727C14.0967 14.5798 13.9514 14.64 13.7998 14.64C13.6483 14.64 13.5029 14.5798 13.3958 14.4727C13.2886 14.3655 13.2284 14.2202 13.2284 14.0686C13.2163 13.9233 13.164 13.7843 13.0772 13.6672C12.9903 13.5501 12.8726 13.4595 12.737 13.4058V14.9315C13.1787 15.0119 13.5803 15.239 13.8769 15.576C14.1735 15.913 14.3477 16.3403 14.3712 16.7886Z" fill="#2E2E2E"/>
</svg>
