<svg width="24" height="24" viewBox="0 0 24 24" fill="none" xmlns="http://www.w3.org/2000/svg">
<path fill-rule="evenodd" clip-rule="evenodd" d="M10.809 5.50107C10.7193 5.22066 10.773 4.93402 10.9128 4.69914L12.7683 1.59273C12.9122 1.34782 13.1443 1.15626 13.4322 1.06123C14.0754 0.848897 14.7663 1.2065 14.9753 1.85997C15.119 2.30926 14.9833 2.76564 14.6984 3.10162C14.6927 3.10835 12.3834 5.83188 12.3774 5.83837C12.2721 5.9576 12.1361 6.05172 11.9754 6.10475C11.4892 6.26527 10.9669 5.99499 10.809 5.50107ZM9.01021 8.54695L9.00985 8.5468C7.91541 8.06399 6.38022 7.38676 6.37509 7.38434C6.12488 7.26744 5.93157 7.03758 5.88545 6.74177C5.81345 6.28012 6.12354 5.84658 6.57792 5.77349C6.6939 5.75485 6.80793 5.76169 6.91478 5.78955L10.8855 6.68559C11.3581 6.79338 11.7395 7.1869 11.8199 7.70274C11.9257 8.38134 11.4699 9.01859 10.8019 9.12608C10.5494 9.1667 10.3066 9.1199 10.0879 9.02239L9.01021 8.54695ZM17.5784 9.21575C17.3152 9.1537 17.0303 9.19083 16.7958 9.36452C16.3828 9.67046 16.292 10.2587 16.5932 10.6783C16.6928 10.8171 16.8231 10.9192 16.9674 10.9838C16.9752 10.9876 20.2408 12.3718 20.2489 12.3751C20.6518 12.5458 21.1209 12.5352 21.4967 12.2568C22.0433 11.8521 22.1633 11.0739 21.7648 10.5187C21.5865 10.2702 21.3352 10.1056 21.0614 10.0427L17.5784 9.21575ZM15.0363 16.3288C15.2711 16.502 15.3936 16.766 15.4164 17.0395L15.7132 20.6605C15.7386 20.9445 15.6617 21.2381 15.4838 21.487C15.0863 22.0428 14.3205 22.1662 13.7732 21.7624C13.397 21.4848 13.2426 21.0346 13.2786 20.5926L13.315 20.1467L13.3164 20.1297L13.3181 20.1087L13.3206 20.0777C13.4016 19.0843 13.5715 16.9994 13.5724 16.9926C13.5885 16.8333 13.6441 16.6759 13.7434 16.537C14.0438 16.1168 14.6227 16.0236 15.0363 16.3288ZM7.41158 17.3826C7.66069 17.2764 7.8702 17.0767 7.96015 16.7965C8.11861 16.3027 7.85305 15.7719 7.367 15.6109C7.2063 15.5578 7.04186 15.5524 6.88764 15.5859C6.87901 15.5876 3.4341 16.4085 3.42563 16.4105C3.00061 16.5118 2.6265 16.7996 2.48235 17.2487C2.27269 17.902 2.62401 18.6042 3.26702 18.8171C3.55487 18.9125 3.85349 18.8964 4.11167 18.7845L7.41158 17.3826ZM5.34743 10.095C5.05724 10.0952 4.80539 9.95475 4.62863 9.74718L2.29274 6.99543C2.10785 6.78087 2.00015 6.49747 2 6.18991C1.99975 5.50286 2.54783 4.94568 3.22419 4.94543C3.6892 4.94522 4.07462 5.21718 4.30134 5.59616L4.59048 6.07967C5.1091 6.94692 6.14416 8.67774 6.14731 8.68363C6.22648 8.82216 6.27266 8.98258 6.27271 9.15434C6.27291 9.67368 5.85861 10.0948 5.34743 10.095ZM13.666 5.65647C13.6652 5.66332 13.4349 8.09564 13.3297 9.20707L13.2783 9.74965C13.2544 9.99106 13.2856 10.2401 13.4015 10.4715C13.7083 11.0838 14.4457 11.3276 15.0484 11.0159C15.5066 10.779 15.7574 10.289 15.7124 9.79908L15.3259 5.6858C15.3189 5.57391 15.2902 5.46156 15.2369 5.35529C15.0282 4.93878 14.5266 4.77299 14.1166 4.98502C13.8538 5.12087 13.6983 5.37864 13.666 5.65647ZM13.5829 13.0586C13.5914 13.0567 17.5254 12.1666 17.534 12.1648C17.804 12.1099 18.0935 12.1803 18.302 12.3919C18.6276 12.7222 18.6278 13.2581 18.3026 13.5888C18.2197 13.6731 18.1235 13.7357 18.0209 13.777L14.291 15.425C13.8464 15.6203 13.3101 15.5299 12.9464 15.1607C12.4679 14.6752 12.4675 13.8875 12.9455 13.4013C13.1262 13.2176 13.3496 13.1104 13.5829 13.0586ZM11.0411 15.1625L11.0356 15.153L10.5834 14.3735C10.463 14.164 10.2937 13.9811 10.066 13.8631C9.46345 13.551 8.72591 13.7941 8.41871 14.4062C8.18511 14.8716 8.26579 15.4176 8.5857 15.7871L11.2787 18.8838C11.349 18.9702 11.4372 19.0439 11.5418 19.098C11.9517 19.3104 12.4534 19.145 12.6624 18.7286C12.7963 18.4618 12.773 18.1603 12.6383 17.9163C12.6353 17.9109 11.6457 16.2048 11.0411 15.1625ZM7.82416 12.5714C7.03468 13.4775 5.74439 14.9585 5.74023 14.9631C5.55335 15.1685 5.27832 15.2841 4.98718 15.2371C4.53279 15.1636 4.22301 14.7299 4.29531 14.2683C4.31375 14.1506 4.35549 14.0425 4.41467 13.9479L6.48292 10.3899C6.73008 9.96676 7.21647 9.72029 7.72426 9.80235C8.3922 9.91028 8.84753 10.5478 8.74128 11.2264C8.70114 11.4828 8.58212 11.7029 8.42316 11.8839C8.4214 11.8859 8.17115 12.1731 7.82416 12.5714Z" fill="#EB2D4B"/>
</svg>
