<svg width="25" height="24" viewBox="0 0 25 24" fill="none" xmlns="http://www.w3.org/2000/svg">
<path d="M22.3092 6.86346L12.6551 2.03636C12.6072 2.01245 12.5544 2 12.5009 2C12.4474 2 12.3947 2.01245 12.3468 2.03636L2.69263 6.86346C2.63531 6.8921 2.58711 6.93614 2.55343 6.99065C2.51975 7.04516 2.50193 7.10797 2.50196 7.17205V16.8262C2.50161 16.8906 2.51928 16.9538 2.55298 17.0086C2.58667 17.0635 2.63505 17.1078 2.69263 17.1365L12.3468 21.9636C12.3947 21.9876 12.4474 22 12.5009 22C12.5544 22 12.6072 21.9876 12.6551 21.9636L22.3092 17.1365C22.3668 17.1078 22.4152 17.0635 22.4489 17.0086C22.4826 16.9538 22.5003 16.8906 22.4999 16.8262V7.17205C22.4999 7.10797 22.4821 7.04516 22.4484 6.99065C22.4148 6.93614 22.3666 6.8921 22.3092 6.86346ZM12.5009 11.6137L9.80569 10.2659L18.4207 5.68944L21.3859 7.17205L12.5009 11.6137ZM7.04736 8.8867L15.6623 4.31027L17.6621 5.31017L9.04819 9.88729L7.04736 8.8867ZM6.63947 9.45388L8.70822 10.4883V13.2356L7.91761 12.445C7.85297 12.3803 7.76528 12.344 7.67384 12.3439H6.63947V9.45388ZM12.5009 2.73043L14.9048 3.931L6.28985 8.50812L3.61771 7.17205L12.5009 2.73043ZM3.19154 7.72992L5.94988 9.10909V12.6887C5.94988 12.7802 5.98621 12.8679 6.05087 12.9325C6.11553 12.9972 6.20323 13.0335 6.29467 13.0335H7.5311L8.80924 14.3117C8.85746 14.3599 8.91889 14.3927 8.98577 14.406C9.05264 14.4193 9.12195 14.4125 9.18495 14.3864C9.24794 14.3603 9.30179 14.3161 9.33967 14.2594C9.37756 14.2027 9.39779 14.1361 9.3978 14.0679V10.8331L12.1561 12.2122V21.0954L3.19154 16.6131V7.72992ZM12.8457 21.0954V12.2122L21.8103 7.72992V16.6131L12.8457 21.0954Z" fill="#2E2E2E" stroke="#2E2E2E" stroke-width="0.2"/>
</svg>
