<svg width="24" height="24" viewBox="0 0 24 24" fill="none" xmlns="http://www.w3.org/2000/svg">
<path d="M17.0233 7.8139H17.6512C17.6512 7.64737 17.585 7.48766 17.4672 7.3699C17.3495 7.25215 17.1898 7.186 17.0233 7.186V7.8139ZM6.97674 7.8139V7.186C6.81021 7.186 6.6505 7.25215 6.53275 7.3699C6.41499 7.48766 6.34884 7.64737 6.34884 7.8139H6.97674ZM16.3953 7.8139V11.1627H17.6512V7.8139H16.3953ZM16.3953 11.1627V17.8604H17.6512V11.1627H16.3953ZM15.3488 18.9069H8.65116V20.1627H15.3488V18.9069ZM7.60465 17.8604V7.8139H6.34884V17.8604H7.60465ZM6.97674 8.44181H17.0233V7.186H6.97674V8.44181ZM6.97674 5.09297H17.0233V3.83716H6.97674V5.09297ZM4.25581 7.8139C4.25581 6.31118 5.47401 5.09297 6.97674 5.09297V3.83716C4.78045 3.83716 3 5.61761 3 7.8139H4.25581ZM6.97674 10.5348C5.47401 10.5348 4.25581 9.31663 4.25581 7.8139H3C3 10.0102 4.78045 11.7906 6.97674 11.7906V10.5348ZM19.7442 7.8139C19.7442 9.31663 18.526 10.5348 17.0233 10.5348V11.7906C19.2196 11.7906 21 10.0102 21 7.8139H19.7442ZM21 7.8139C21 5.61761 19.2196 3.83716 17.0233 3.83716V5.09297C18.526 5.09297 19.7442 6.31118 19.7442 7.8139H21ZM16.3953 17.8604C16.3953 18.4384 15.9268 18.9069 15.3488 18.9069V20.1627C16.6204 20.1627 17.6512 19.132 17.6512 17.8604H16.3953ZM8.65116 18.9069C8.07319 18.9069 7.60465 18.4384 7.60465 17.8604H6.34884C6.34884 19.132 7.37963 20.1627 8.65116 20.1627V18.9069Z" fill="#2E2E2E"/>
<path d="M14.1184 14.9555C14.3636 14.7103 14.3636 14.3128 14.1184 14.0676C13.8732 13.8224 13.4757 13.8224 13.2304 14.0676L14.1184 14.9555ZM10.7696 14.0676C10.5243 13.8224 10.1268 13.8224 9.88158 14.0676C9.63637 14.3128 9.63637 14.7103 9.88158 14.9555L10.7696 14.0676ZM12.6279 11.1627C12.6279 10.816 12.3468 10.5348 12 10.5348C11.6532 10.5348 11.3721 10.816 11.3721 11.1627H12.6279ZM11.3721 15.3488C11.3721 15.6956 11.6532 15.9767 12 15.9767C12.3468 15.9767 12.6279 15.6956 12.6279 15.3488H11.3721ZM13.2304 14.0676L12.148 15.15L13.036 16.038L14.1184 14.9555L13.2304 14.0676ZM11.852 15.15L10.7696 14.0676L9.88158 14.9555L10.964 16.038L11.852 15.15ZM12.148 15.15C12.0662 15.2317 11.9338 15.2317 11.852 15.15L10.964 16.038C11.5362 16.6101 12.4638 16.6101 13.036 16.038L12.148 15.15ZM11.3721 11.1627V15.3488H12.6279V11.1627H11.3721Z" fill="#2E2E2E"/>
</svg>
