<svg width="24" height="24" viewBox="0 0 24 24" fill="none" xmlns="http://www.w3.org/2000/svg">
<path fill-rule="evenodd" clip-rule="evenodd" d="M12 20C16.4183 20 20 16.4183 20 12C20 7.58172 16.4183 4 12 4C7.58172 4 4 7.58172 4 12C4 16.4183 7.58172 20 12 20ZM15.6333 7.19697L7.19644 15.6338C7.07678 15.7535 6.87365 15.741 6.77765 15.6018C5.95122 14.4039 5.52131 12.9083 5.69104 11.3124C6.0027 8.37401 8.37348 6.00462 11.3119 5.69158C12.9063 5.52184 14.4034 5.95036 15.5999 6.77819C15.739 6.87419 15.753 7.07732 15.6319 7.19697H15.6333ZM12.6891 18.308C15.6289 17.995 17.9983 15.6256 18.31 12.6872L18.3113 12.6858C18.4811 11.0913 18.0512 9.59568 17.2247 8.39777C17.1287 8.25864 16.9256 8.24612 16.806 8.36577L8.36909 16.8026C8.24804 16.9223 8.26196 17.1254 8.40109 17.2214C9.59761 18.0492 11.0947 18.4778 12.6891 18.308Z" fill="#E24C4B"/>
</svg>
