<svg width="25" height="24" viewBox="0 0 25 24" fill="none" xmlns="http://www.w3.org/2000/svg">
<path d="M10.3587 18.6435C10.338 18.1284 10.5373 17.6227 10.9045 17.2563L11.2802 16.8798C11.6281 16.5327 12.1059 16.3334 12.5931 16.3334C12.7938 16.3334 12.9909 16.3663 13.1802 16.4305L13.4888 16.5356L14.1053 15.8677L12.5295 14.5226C12.1481 14.1962 11.9188 13.7205 11.8988 13.2169C11.8788 12.7033 12.0781 12.199 12.4445 11.8333L12.8652 11.4126C13.2931 10.984 13.8817 10.739 14.4803 10.739C14.8346 10.739 15.1867 10.8247 15.4989 10.9876L17.6053 12.0847L18.3846 11.2447C18.9147 10.6711 19.5854 10.2604 20.3125 10.0404C19.8668 5.52602 16.0603 1.99951 11.4288 1.99951C6.49723 1.99951 2.5 5.99674 2.5 10.9283C2.5 15.6741 6.20508 19.5442 10.8795 19.8292C10.5695 19.512 10.3773 19.0928 10.3587 18.6435ZM8.49585 15.1377L8.09227 16.5506C8.00155 16.8677 7.84155 17.1491 7.63869 17.3927C5.84936 16.3413 4.53219 14.5741 4.09146 12.4797C4.16861 12.4605 4.2429 12.4333 4.3229 12.4219L5.92793 12.1926C6.65366 12.089 7.38582 12.3333 7.90441 12.8512C8.50228 13.4491 8.72943 14.3248 8.49728 15.1377H8.49585ZM9.89945 8.10108C9.74659 8.71323 9.19658 9.14253 8.56514 9.14253C7.19725 9.14253 5.88579 8.59323 4.92648 7.61749C4.87505 7.56535 4.83648 7.50249 4.78719 7.4482C6.04151 5.05958 8.54299 3.4274 11.4281 3.4274C12.8124 3.4274 14.1053 3.80884 15.2181 4.46314C15.2517 5.48602 14.866 6.48461 14.1345 7.21534C13.7453 7.60464 13.1624 7.72392 12.6517 7.51963L11.7438 7.15677C10.9702 6.84748 10.1009 7.29177 9.89874 8.10036L9.89945 8.10108Z" fill="#2E2E2E"/>
<path d="M20.9418 20.3321L21.3633 19.9106C21.6247 19.6492 21.6933 19.2578 21.5319 18.9477L19.9311 15.8748L21.569 14.3541C22.2397 13.7341 22.5819 12.8412 22.4833 11.9676C22.4426 11.6083 22.1769 11.3419 21.8176 11.3019C20.944 11.2033 20.0511 11.5454 19.4311 12.2162L17.9103 13.8541L14.8374 12.2533C14.5274 12.0919 14.136 12.1605 13.8745 12.4219L13.4531 12.8433C13.2817 13.0148 13.2831 13.2869 13.4567 13.4355L16.1617 15.7455L13.9074 18.1884L12.7195 17.7827C12.5731 17.7327 12.4059 17.7741 12.2909 17.8892L11.9131 18.267C11.7409 18.4392 11.7431 18.712 11.9174 18.8599L13.0845 19.8506C13.391 20.1106 13.6753 20.3949 13.9353 20.7014L14.926 21.8685C15.0739 22.0428 15.3467 22.045 15.5189 21.8728L15.8967 21.4949C16.0117 21.3799 16.0532 21.2128 16.0032 21.0664L15.5974 19.8785L18.0403 17.6241L20.3504 20.3292C20.4983 20.5028 20.7711 20.5042 20.9426 20.3328L20.9418 20.3321Z" fill="#2E2E2E"/>
</svg>
