<svg width="30" height="30" viewBox="0 0 30 30" fill="none" xmlns="http://www.w3.org/2000/svg">
<path d="M15.0002 0C6.7164 0 -0.000488281 6.71557 -0.000488281 15C-0.000488281 23.2844 6.71574 30 15.0002 30C23.2853 30 30.0008 23.2844 30.0008 15C30.0008 6.71557 23.2853 0 15.0002 0ZM15.0002 4.48517C17.7412 4.48517 19.9624 6.70701 19.9624 9.44674C19.9624 12.1871 17.7412 14.4083 15.0002 14.4083C12.2604 14.4083 10.0393 12.1871 10.0393 9.44674C10.0393 6.70701 12.2604 4.48517 15.0002 4.48517ZM14.9969 26.0782C12.2631 26.0782 9.75923 25.0826 7.82798 23.4347C7.35752 23.0334 7.08605 22.445 7.08605 21.8276C7.08605 19.049 9.3349 16.8252 12.1142 16.8252H17.8875C20.6674 16.8252 22.9077 19.049 22.9077 21.8276C22.9077 22.4456 22.6376 23.0327 22.1664 23.434C20.2358 25.0826 17.7313 26.0782 14.9969 26.0782Z" fill="url(#paint0_linear_1217_6675)"/>
<defs>
<linearGradient id="paint0_linear_1217_6675" x1="1.31323" y1="4.87129" x2="29.2489" y2="6.16413" gradientUnits="userSpaceOnUse">
<stop stop-color="#656BFF"/>
<stop offset="1" stop-color="#4B51B5"/>
</linearGradient>
</defs>
</svg>
