<svg width="17" height="16" viewBox="0 0 17 16" fill="none" xmlns="http://www.w3.org/2000/svg">
<ellipse cx="8.5" cy="8.00455" rx="8" ry="7.99576" fill="white"/>
<path d="M8.5 4.89149e-07C7.44932 -0.000366879 6.40887 0.206199 5.4381 0.607893C4.46733 1.00959 3.58527 1.59854 2.84233 2.34109C2.09938 3.08363 1.51012 3.96523 1.10822 4.93548C0.706308 5.90574 0.499633 6.94564 0.5 7.99576C0.499633 9.04588 0.706308 10.0858 1.10822 11.056C1.51012 12.0263 2.09938 12.9079 2.84233 13.6504C3.58527 14.393 4.46733 14.9819 5.4381 15.3836C6.40887 15.7853 7.44932 15.9919 8.5 15.9915C9.55068 15.9919 10.5911 15.7853 11.5619 15.3836C12.5327 14.9819 13.4147 14.393 14.1577 13.6504C14.9006 12.9079 15.4899 12.0263 15.8918 11.056C16.2937 10.0858 16.5004 9.04588 16.5 7.99576C16.5004 6.94564 16.2937 5.90574 15.8918 4.93548C15.4899 3.96523 14.9006 3.08363 14.1577 2.34109C13.4147 1.59854 12.5327 1.00959 11.5619 0.607893C10.5911 0.206199 9.55068 -0.000366879 8.5 4.89149e-07ZM8.5 13.7549C8.26077 13.7555 8.02675 13.6851 7.8276 13.5526C7.62846 13.4201 7.47314 13.2315 7.38133 13.0107C7.28953 12.7899 7.26536 12.5468 7.3119 12.3123C7.35843 12.0777 7.47358 11.8623 7.64274 11.6932C7.81191 11.5241 8.02748 11.409 8.26215 11.3625C8.49681 11.316 8.74001 11.3402 8.96093 11.4319C9.18185 11.5237 9.37054 11.6789 9.50311 11.8779C9.63568 12.077 9.70615 12.3109 9.7056 12.55C9.70486 12.8693 9.5776 13.1754 9.35167 13.4012C9.12574 13.627 8.81952 13.7542 8.5 13.7549ZM9.96294 3.80218L9.50699 9.95277C9.50415 9.99529 9.48522 10.0351 9.45405 10.0642C9.42288 10.0933 9.3818 10.1094 9.33916 10.1093H7.66084C7.6182 10.1094 7.57712 10.0933 7.54595 10.0642C7.51478 10.0351 7.49585 9.99529 7.49301 9.95277L7.03706 3.80218C7.02471 3.60256 7.05338 3.40253 7.12131 3.2144C7.18924 3.02628 7.29499 2.85405 7.43205 2.70833C7.56911 2.56261 7.73457 2.44648 7.91824 2.3671C8.10191 2.28771 8.29989 2.24676 8.5 2.24676C8.70011 2.24676 8.89809 2.28771 9.08176 2.3671C9.26543 2.44648 9.43089 2.56261 9.56795 2.70833C9.70501 2.85405 9.81076 3.02628 9.87869 3.2144C9.94662 3.40253 9.97529 3.60256 9.96294 3.80218Z" fill="#EB2D4B"/>
</svg>
