<svg width="375" height="467" viewBox="0 0 375 467" fill="none" xmlns="http://www.w3.org/2000/svg">
<path fill-rule="evenodd" clip-rule="evenodd" d="M128.744 0.512328C127.984 0.0265086 127.047 0 126.146 0H16C7.16344 0 0 7.16344 0 16V451C0 459.837 7.16345 467 16 467H359C367.837 467 375 459.837 375 451V16C375 7.16344 367.837 0 359 0H248.854C247.953 0 247.016 0.0265072 246.256 0.512318C244.889 1.38746 243.536 3.21074 242.03 5.24163C239.078 9.22206 235.534 14 230.124 14H192.26H182.74H144.876C139.466 14 135.922 9.22206 132.97 5.24163C131.464 3.21075 130.111 1.38748 128.744 0.512328Z" fill="white"/>
<rect x="142.5" width="90" height="8" rx="4" fill="white"/>
</svg>
