<svg width="327" height="176" viewBox="0 0 327 176" fill="none" xmlns="http://www.w3.org/2000/svg">
<mask id="mask0_644_11847" style="mask-type:luminance" maskUnits="userSpaceOnUse" x="0" y="-11" width="327" height="187">
<path d="M327 -10.8572H0V176H327V-10.8572Z" fill="white"/>
</mask>
<g mask="url(#mask0_644_11847)">
<g opacity="0.2">
<path opacity="0.15" d="M185.433 30.6218L194.416 15.9998H212.383L221.366 30.6218L212.383 45.2438H194.416L185.433 30.6218Z" fill="#D4F5DD"/>
<path opacity="0.58" d="M194.723 16.499L186.046 30.6219L194.723 44.7448H212.076L220.753 30.6219L212.076 16.499H194.723Z" fill="#D4F5DD"/>
<path opacity="0.47" d="M158.942 44.994L167.925 30.3726H185.892L194.876 44.994L185.892 59.616H167.925L158.942 44.994Z" fill="white"/>
<path opacity="0.09" d="M168.232 30.8716L159.555 44.9939L168.232 59.1168H185.586L194.262 44.9939L185.586 30.8716H168.232Z" fill="white"/>
<path opacity="0.31" d="M132.452 30.6218L141.435 15.9998H159.402L168.386 30.6218L159.402 45.2438H141.435L132.452 30.6218Z" fill="white"/>
<path opacity="0.68" d="M141.742 16.499L133.065 30.6219L141.742 44.7448H159.096L167.772 30.6219L159.096 16.499H141.742Z" fill="white"/>
<path opacity="0.22" d="M132.452 59.3671L141.435 44.7451H159.402L168.386 59.3671L159.402 73.9891H141.435L132.452 59.3671Z" fill="#D4F5DD"/>
<path opacity="0.77" d="M141.742 45.2439L133.065 59.3668L141.742 73.4897H159.096L167.772 59.3668L159.096 45.2439H141.742Z" fill="#D4F5DD"/>
<path opacity="0.2" d="M105.962 44.994L114.945 30.3726H132.912L141.895 44.994L132.912 59.616H114.945L105.962 44.994Z" fill="#D4F5DD"/>
<path opacity="0.95" d="M115.251 30.8716L106.575 44.9939L115.251 59.1168H132.605L141.282 44.9939L132.605 30.8716H115.251Z" fill="#D4F5DD"/>
<path opacity="0.36" d="M105.962 73.7389L114.945 59.1169H132.912L141.895 73.7389L132.912 88.3615H114.945L105.962 73.7389Z" fill="white"/>
<path opacity="0.96" d="M115.251 59.616L106.575 73.7389L115.251 87.8623H132.605L141.282 73.7389L132.605 59.616H115.251Z" fill="white"/>
<path opacity="0.71" d="M79.4714 30.6218L88.4546 15.9998H106.421L115.405 30.6218L106.421 45.2438H88.4546L79.4714 30.6218Z" fill="#D4F5DD"/>
<path opacity="0.38" d="M88.7609 16.499L80.0843 30.6219L88.7609 44.7448H106.115L114.792 30.6219L106.115 16.499H88.7609Z" fill="white"/>
<path opacity="0.23" d="M79.4714 59.3671L88.4546 44.7451H106.421L115.405 59.3671L106.421 73.9891H88.4546L79.4714 59.3671Z" fill="#D4F5DD"/>
<path opacity="0.51" d="M88.7609 45.2439L80.0843 59.3668L88.7609 73.4897H106.115L114.792 59.3668L106.115 45.2439H88.7609Z" fill="white"/>
<path opacity="0.68" d="M79.4714 88.1113L88.4546 73.4893H106.421L115.405 88.1113L106.421 102.733H88.4546L79.4714 88.1113Z" fill="white"/>
<path opacity="0.14" d="M88.7609 73.989L80.0843 88.1119L88.7609 102.235H106.115L114.792 88.1119L106.115 73.989H88.7609Z" fill="#D4F5DD"/>
<path opacity="0.6" d="M52.9805 44.994L61.9642 30.3726H79.9311L88.9142 44.994L79.9311 59.616H61.9642L52.9805 44.994Z" fill="#D4F5DD"/>
<path opacity="0.87" d="M62.2708 30.8716L53.5941 44.9939L62.2708 59.1168H79.6247L88.3013 44.9939L79.6247 30.8716H62.2708Z" fill="#D4F5DD"/>
<path opacity="0.26" d="M52.9805 73.7389L61.9642 59.1169H79.9311L88.9142 73.7389L79.9311 88.3615H61.9642L52.9805 73.7389Z" fill="#D4F5DD"/>
<path opacity="0.55" d="M62.2708 59.616L53.5941 73.7389L62.2708 87.8623H79.6247L88.3013 73.7389L79.6247 59.616H62.2708Z" fill="white"/>
<path opacity="0.55" d="M52.9805 102.484L61.9642 87.8623H79.9311L88.9142 102.484L79.9311 117.106H61.9642L52.9805 102.484Z" fill="white"/>
<path opacity="0.27" d="M62.2708 88.3613L53.5941 102.484L62.2708 116.607H79.6247L88.3013 102.484L79.6247 88.3613H62.2708Z" fill="#D4F5DD"/>
<path opacity="0.37" d="M52.9805 131.229L61.9642 116.607H79.9311L88.9142 131.229L79.9311 145.851H61.9642L52.9805 131.229Z" fill="white"/>
<path opacity="0.49" d="M62.2708 117.106L53.5941 131.229L62.2708 145.352H79.6247L88.3013 131.229L79.6247 117.106H62.2708Z" fill="#D4F5DD"/>
<path opacity="0.86" d="M26.4903 30.6218L35.474 15.9998H53.4409L62.424 30.6218L53.4409 45.2438H35.474L26.4903 30.6218Z" fill="white"/>
<path opacity="0.38" d="M35.7805 16.499L27.1038 30.6219L35.7805 44.7448H53.1338L61.811 30.6219L53.1338 16.499H35.7805Z" fill="#D4F5DD"/>
<path opacity="0.47" d="M26.4903 59.3671L35.474 44.7451H53.4409L62.424 59.3671L53.4409 73.9891H35.474L26.4903 59.3671Z" fill="#D4F5DD"/>
<path opacity="0.91" d="M32.0517 13.166L23.375 27.2889L32.0517 41.4118H49.405L58.0822 27.2889L49.405 13.166H32.0517Z" fill="#D4F5DD"/>
<path opacity="0.14" d="M26.4903 88.1113L35.474 73.4893H53.4409L62.424 88.1113L53.4409 102.733H35.474L26.4903 88.1113Z" fill="#D4F5DD"/>
<path opacity="0.63" d="M35.7805 73.989L27.1038 88.1119L35.7805 102.235H53.1338L61.811 88.1119L53.1338 73.989H35.7805Z" fill="white"/>
<path opacity="0.92" d="M26.4903 116.857L35.474 102.235H53.4409L62.424 116.857L53.4409 131.479H35.474L26.4903 116.857Z" fill="#D4F5DD"/>
<path opacity="0.7" d="M35.7805 102.734L27.1038 116.857L35.7805 130.98H53.1338L61.811 116.857L53.1338 102.734H35.7805Z" fill="white"/>
<path opacity="0.15" d="M26.4903 145.602L35.474 130.98H53.4409L62.424 145.602L53.4409 160.224H35.474L26.4903 145.602Z" fill="#D4F5DD"/>
<path opacity="0.85" d="M35.7805 131.479L27.1038 145.602L35.7805 159.725H53.1338L61.811 145.602L53.1338 131.479H35.7805Z" fill="#D4F5DD"/>
<path opacity="0.28" d="M26.4903 174.347L35.474 159.725H53.4409L62.424 174.347L53.4409 188.969H35.474L26.4903 174.347Z" fill="#D4F5DD"/>
<path opacity="0.55" d="M35.7805 160.224L27.1038 174.347L35.7805 188.47H53.1338L61.811 174.347L53.1338 160.224H35.7805Z" fill="#D4F5DD"/>
<path opacity="0.09" d="M0 44.994L8.98314 30.3726H26.9506L35.9337 44.994L26.9506 59.616H8.98314L0 44.994Z" fill="#D4F5DD"/>
<path opacity="0.09" d="M9.29018 30.8716L0.613525 44.9939L9.29018 59.1168H26.6435L35.3202 44.9939L26.6435 30.8716H9.29018Z" fill="white"/>
<path opacity="0.7" d="M0 73.7389L8.98314 59.1169H26.9506L35.9337 73.7389L26.9506 88.3615H8.98314L0 73.7389Z" fill="white"/>
<path opacity="0.31" d="M9.29018 59.616L0.613525 73.7389L9.29018 87.8623H26.6435L35.3202 73.7389L26.6435 59.616H9.29018Z" fill="#D4F5DD"/>
<path opacity="0.67" d="M0 102.484L8.98314 87.8623H26.9506L35.9337 102.484L26.9506 117.106H8.98314L0 102.484Z" fill="white"/>
<path opacity="0.81" d="M0 131.229L8.98314 116.607H26.9506L35.9337 131.229L26.9506 145.851H8.98314L0 131.229Z" fill="white"/>
<path opacity="0.12" d="M9.29018 117.106L0.613525 131.229L9.29018 145.352H26.6435L35.3202 131.229L26.6435 117.106H9.29018Z" fill="#D4F5DD"/>
<path opacity="0.87" d="M0 159.975L8.98314 145.352H26.9506L35.9337 159.975L26.9506 174.597H8.98314L0 159.975Z" fill="white"/>
<path opacity="0.59" d="M9.29018 145.851L0.613525 159.975L9.29018 174.098H26.6435L35.3202 159.975L26.6435 145.851H9.29018Z" fill="#D4F5DD"/>
</g>
<g opacity="0.5">
<path opacity="0.15" d="M158.734 180.047L148.093 197.878H126.81L116.168 180.047L126.81 162.217H148.093L158.734 180.047Z" fill="#CBF7D9"/>
<path opacity="0.58" d="M147.73 197.27L158.008 180.047L147.73 162.825H127.173L116.895 180.047L127.173 197.27H147.73Z" fill="#CBF7D9"/>
<path opacity="0.47" d="M190.113 162.52L179.472 180.352H158.189L147.548 162.52L158.189 144.689H179.472L190.113 162.52Z" fill="white"/>
<path opacity="0.09" d="M179.109 179.743L189.387 162.521L179.109 145.298H158.552L148.274 162.521L158.552 179.743H179.109Z" fill="white"/>
<path opacity="0.31" d="M221.493 180.047L210.852 197.878H189.569L178.927 180.047L189.569 162.217H210.852L221.493 180.047Z" fill="white"/>
<path opacity="0.68" d="M210.489 197.27L220.767 180.047L210.489 162.825H189.932L179.654 180.047L189.932 197.27H210.489Z" fill="white"/>
<path opacity="0.22" d="M221.493 144.994L210.852 162.826H189.569L178.927 144.994L189.569 127.162H210.852L221.493 144.994Z" fill="#CBF7D9"/>
<path opacity="0.77" d="M210.489 162.216L220.767 144.994L210.489 127.771H189.932L179.654 144.994L189.932 162.216H210.489Z" fill="#CBF7D9"/>
<path opacity="0.2" d="M252.873 162.52L242.231 180.352H220.948L210.307 162.52L220.948 144.689H242.231L252.873 162.52Z" fill="#CBF7D9"/>
<path opacity="0.95" d="M241.868 179.743L252.146 162.521L241.868 145.298H221.311L211.033 162.521L221.311 179.743H241.868Z" fill="#CBF7D9"/>
<path opacity="0.36" d="M252.873 127.467L242.231 145.298H220.948L210.307 127.467L220.948 109.635H242.231L252.873 127.467Z" fill="white"/>
<path opacity="0.96" d="M241.868 144.689L252.146 127.467L241.868 110.244H221.311L211.033 127.467L221.311 144.689H241.868Z" fill="white"/>
<path opacity="0.71" d="M284.253 180.047L273.611 197.878H252.328L241.687 180.047L252.328 162.217H273.611L284.253 180.047Z" fill="#CBF7D9"/>
<path opacity="0.38" d="M273.248 197.27L283.526 180.047L273.248 162.825H252.692L242.413 180.047L252.692 197.27H273.248Z" fill="white"/>
<path opacity="0.23" d="M284.253 144.994L273.611 162.826H252.328L241.687 144.994L252.328 127.162H273.611L284.253 144.994Z" fill="#CBF7D9"/>
<path opacity="0.51" d="M273.248 162.216L283.526 144.994L273.248 127.771H252.692L242.413 144.994L252.692 162.216H273.248Z" fill="white"/>
<path opacity="0.68" d="M284.253 109.94L273.611 127.772H252.328L241.687 109.94L252.328 92.1084H273.611L284.253 109.94Z" fill="white"/>
<path opacity="0.14" d="M273.248 127.162L283.526 109.939L273.248 92.7163H252.692L242.413 109.939L252.692 127.162H273.248Z" fill="#CBF7D9"/>
<path opacity="0.6" d="M315.632 162.52L304.991 180.352H283.707L273.066 162.52L283.707 144.689H304.991L315.632 162.52Z" fill="#CBF7D9"/>
<path opacity="0.87" d="M304.627 179.743L314.905 162.521L304.627 145.298H284.071L273.793 162.521L284.071 179.743H304.627Z" fill="#CBF7D9"/>
<path opacity="0.26" d="M315.632 127.467L304.991 145.298H283.707L273.066 127.467L283.707 109.635H304.991L315.632 127.467Z" fill="#CBF7D9"/>
<path opacity="0.55" d="M304.627 144.689L314.905 127.467L304.627 110.244H284.071L273.793 127.467L284.071 144.689H304.627Z" fill="white"/>
<path opacity="0.55" d="M315.632 92.4123L304.991 110.244H283.707L273.066 92.4123L283.707 74.5803H304.991L315.632 92.4123Z" fill="white"/>
<path opacity="0.27" d="M304.627 109.635L314.905 92.4128L304.627 75.1902H284.071L273.793 92.4128L284.071 109.635H304.627Z" fill="#CBF7D9"/>
<path opacity="0.37" d="M315.632 57.3584L304.991 75.1903H283.707L273.066 57.3584L283.707 39.5271H304.991L315.632 57.3584Z" fill="white"/>
<path opacity="0.49" d="M304.627 74.5808L314.905 57.3581L304.627 40.1355H284.071L273.793 57.3581L284.071 74.5808H304.627Z" fill="#CBF7D9"/>
<path opacity="0.86" d="M347.011 180.047L336.37 197.878H315.087L304.446 180.047L315.087 162.217H336.37L347.011 180.047Z" fill="white"/>
<path opacity="0.38" d="M336.007 197.27L346.285 180.047L336.007 162.825H315.45L305.172 180.047L315.45 197.27H336.007Z" fill="#CBF7D9"/>
<path opacity="0.47" d="M347.011 144.994L336.37 162.826H315.087L304.446 144.994L315.087 127.162H336.37L347.011 144.994Z" fill="#CBF7D9"/>
<path opacity="0.91" d="M336.007 162.216L346.285 144.994L336.007 127.771H315.45L305.172 144.994L315.45 162.216H336.007Z" fill="#CBF7D9"/>
<path opacity="0.14" d="M347.011 109.94L336.37 127.772H315.087L304.446 109.94L315.087 92.1084H336.37L347.011 109.94Z" fill="#CBF7D9"/>
<path opacity="0.63" d="M336.007 127.162L346.285 109.939L336.007 92.7163H315.45L305.172 109.939L315.45 127.162H336.007Z" fill="white"/>
<path opacity="0.92" d="M347.011 74.8857L336.37 92.717H315.087L304.446 74.8857L315.087 57.0537H336.37L347.011 74.8857Z" fill="#CBF7D9"/>
<path opacity="0.7" d="M336.007 92.1081L346.285 74.8855L336.007 57.6628H315.45L305.172 74.8855L315.45 92.1081H336.007Z" fill="white"/>
<path opacity="0.15" d="M347.011 39.8308L336.37 57.6628H315.087L304.446 39.8308L315.087 21.9995H336.37L347.011 39.8308Z" fill="#CBF7D9"/>
<path opacity="0.85" d="M336.007 57.0537L346.285 39.831L336.007 22.6084H315.45L305.172 39.831L315.45 57.0537H336.007Z" fill="#CBF7D9"/>
<path opacity="0.28" d="M347.012 4.77661L336.37 22.6079H315.087L304.446 4.77661L315.087 -13.0547H336.37L347.012 4.77661Z" fill="#CBF7D9"/>
<path opacity="0.55" d="M336.007 22L346.285 4.77732L336.007 -12.4453H315.45L305.172 4.77732L315.45 22H336.007Z" fill="#CBF7D9"/>
</g>
</g>
</svg>
