<svg width="327" height="216" viewBox="0 0 327 216" fill="none" xmlns="http://www.w3.org/2000/svg">
<g clip-path="url(#clip0_1091_13541)">
<g opacity="0.7">
<g opacity="0.6">
<path d="M186.758 94.0179H152.759C146.254 94.0179 140.971 98.9044 140.971 104.928V122.542C140.971 128.566 146.253 133.448 152.759 133.448H154.518C152.679 138.056 148.365 148.828 148.463 148.562C148.562 148.284 164.121 137.462 169.903 133.448H186.758C193.268 133.448 198.545 128.566 198.545 122.542V104.928C198.545 98.9044 193.269 94.0179 186.758 94.0179Z" fill="white"/>
<path d="M213.29 89.1359H185.474C183.927 89.1359 182.467 89.4813 181.173 90.0821H189.216C196.663 90.0821 202.701 95.6725 202.701 102.564V122.722C202.701 123.064 202.674 123.402 202.645 123.737C208.337 127.697 216.74 133.566 216.803 133.75C216.883 133.971 213.355 125.157 211.85 121.39H213.289C218.614 121.39 222.928 117.393 222.928 112.465V98.0592C222.928 93.1293 218.614 89.1348 213.289 89.1348L213.29 89.1359Z" fill="white"/>
</g>
<g opacity="0.6">
<path d="M339.089 22.1859H319.456C315.696 22.1859 312.646 25.0083 312.646 28.4868V38.6583C312.646 42.1368 315.696 44.957 319.456 44.957H320.47C319.406 47.6175 316.917 53.839 316.971 53.6858C317.029 53.5262 326.015 47.2764 329.355 44.957H339.089C342.848 44.957 345.895 42.1368 345.895 38.6583V28.4868C345.895 25.0083 342.848 22.1859 339.089 22.1859Z" fill="white"/>
</g>
<g opacity="0.6">
<path d="M250.882 214.37C263.321 214.37 274.219 220.46 280.296 229.592L286.024 223.711C278.291 213.433 265.441 206.705 250.881 206.705C236.915 206.705 224.513 212.898 216.696 222.478L222.368 228.3C228.593 219.888 239.038 214.371 250.881 214.371L250.882 214.37Z" fill="white"/>
<path d="M250.887 200.972C267.354 200.972 281.973 208.307 291.144 219.64L296.998 213.635C286.213 201.073 269.572 193.008 250.882 193.008C232.781 193.008 216.59 200.571 205.786 212.467L211.622 218.453C220.84 207.807 234.994 200.973 250.887 200.973V200.972Z" fill="white"/>
</g>
<g opacity="0.6">
<path d="M108.336 76.2278C108.336 72.154 104.769 68.8547 100.372 68.8547C95.9743 68.8547 92.4099 72.154 92.4099 76.2278C92.4099 80.3017 95.9732 83.5987 100.372 83.5987C104.77 83.5987 108.336 80.2973 108.336 76.2278Z" fill="white"/>
<path d="M100.375 60.3571C107.532 60.3571 113.656 64.4212 116.227 70.1832L120.226 66.0822C116.363 59.6152 108.922 55.2339 100.376 55.2339C92.2839 55.2339 85.203 59.1676 81.189 65.0708L85.089 69.073C87.9135 63.9052 93.6885 60.3593 100.376 60.3593L100.375 60.3571Z" fill="white"/>
<path d="M100.375 50.9949C109.841 50.9949 118.137 55.6304 122.759 62.5787L127.123 58.1018C121.238 50.2855 111.458 45.1633 100.374 45.1633C89.7419 45.1633 80.3069 49.877 74.3591 57.1643L78.6741 61.5955C83.4063 55.1958 91.3617 50.9949 100.375 50.9949Z" fill="white"/>
<path d="M100.375 40.7995C112.913 40.7995 124.046 46.3812 131.02 55.0057L135.475 50.4344C127.263 40.8712 114.597 34.7333 100.375 34.7333C86.598 34.7333 74.2733 40.491 66.0507 49.5457L70.4949 54.1008C77.5084 45.9977 88.2807 40.7995 100.375 40.7995Z" fill="white"/>
</g>
<g opacity="0.6">
<path d="M32.9734 200.874C35.321 206.144 29.9565 213.18 21.005 216.592C12.0512 220.004 2.89111 218.497 0.550018 213.225C-1.79325 207.952 3.56683 200.919 12.5195 197.506C21.4732 194.094 30.6323 195.602 32.9734 200.874Z" fill="white"/>
<path d="M33.6252 204.447V174.609L49.4436 166.679V153.246L29.698 161.396V202.245L33.6252 204.447Z" fill="white"/>
</g>
<g opacity="0.6">
<path d="M295.606 164.255C296.645 166.579 294.276 169.689 290.323 171.196C286.367 172.702 282.324 172.034 281.291 169.71C280.254 167.38 282.622 164.273 286.58 162.767C290.527 161.259 294.575 161.927 295.607 164.255H295.606Z" fill="white"/>
<path d="M295.894 165.83V152.654L302.883 149.154V143.222L294.163 146.818V164.859L295.894 165.83Z" fill="white"/>
</g>
<g opacity="0.6">
<path d="M329.794 206.143C329.198 206.452 328.672 206.887 328.301 207.467L311.911 232.966L341.515 230.753L329.794 206.143Z" fill="white"/>
</g>
<g opacity="0.6">
<path d="M269.369 125.756L256.506 105.747C256.221 105.302 256.092 104.815 256.081 104.33L278.744 106.05L269.367 125.756H269.369Z" fill="white"/>
<path d="M294.9 82.9091C295.367 83.1535 295.782 83.4957 296.075 83.9498L308.965 104.005L285.68 102.265L294.899 82.9101L294.9 82.9091Z" fill="white"/>
<path d="M257.038 102.164C257.203 102.016 257.39 101.878 257.599 101.765L291.771 82.9405C291.968 82.8341 292.168 82.7526 292.372 82.6885L282.182 104.079L257.038 102.164Z" fill="white"/>
<path d="M282.74 106.356C282.896 106.38 283.043 106.38 283.19 106.347C283.276 106.331 283.349 106.305 283.427 106.278C283.463 106.258 283.507 106.263 283.539 106.246C283.553 106.24 283.556 106.232 283.565 106.225C283.574 106.218 283.584 106.218 283.594 106.216C283.626 106.194 283.644 106.162 283.677 106.139C283.744 106.089 283.804 106.04 283.856 105.977C283.957 105.876 284.028 105.756 284.08 105.616L284.652 104.422L309.886 106.309C309.861 107.277 309.327 108.215 308.364 108.746L274.189 127.569C273.207 128.11 272.042 128.091 271.108 127.629L281.285 106.245L282.739 106.355L282.74 106.356Z" fill="white"/>
<path d="M257.975 89.5107L262.547 78.6233C262.648 78.381 262.814 78.1833 263.02 78.0291L269.287 86.8535L257.976 89.5107H257.975Z" fill="white"/>
<path d="M284.158 85.6118C284.196 85.8584 284.181 86.1181 284.079 86.3636L279.5 97.2782L273.049 88.2191L284.158 85.6118Z" fill="white"/>
<path d="M264.236 77.7107C264.352 77.727 264.469 77.752 264.581 77.7922L283.18 84.4776C283.282 84.5135 283.381 84.5645 283.47 84.6221L271.189 87.4988L264.236 77.7107Z" fill="white"/>
<path d="M270.391 88.4081C270.429 88.4722 270.478 88.5265 270.534 88.5721C270.565 88.5971 270.598 88.6156 270.635 88.634C270.655 88.6449 270.664 88.6612 270.685 88.6677C270.689 88.6699 270.698 88.6688 270.701 88.671C270.701 88.671 270.708 88.6742 270.717 88.6797C270.734 88.6862 270.754 88.6797 270.77 88.6862C270.813 88.6949 270.855 88.7003 270.899 88.7003C270.972 88.7079 271.05 88.697 271.122 88.6731L271.807 88.5145L278.798 98.3265C278.38 98.6187 277.814 98.7132 277.285 98.5231L258.69 91.8355C258.157 91.6432 257.806 91.2163 257.714 90.7307L269.984 87.8453L270.392 88.4092L270.391 88.4081Z" fill="white"/>
</g>
<g opacity="0.6">
<path d="M120.825 192.829L114.725 218.51H151.57L145.096 192.829H120.825Z" fill="white"/>
<path d="M151.713 212.575H168.787L162.957 189.436H141.086L140.617 191.437H146.384L151.713 212.575Z" fill="white"/>
<path d="M141.237 194.24H139.246V186.781C139.246 184.256 136.229 182.205 132.525 182.205C128.82 182.205 125.807 184.256 125.807 186.781V194.24H123.814V186.781C123.814 183.507 127.719 180.85 132.524 180.85C137.329 180.85 141.236 183.507 141.236 186.781V194.24H141.237Z" fill="white"/>
<path d="M159.488 190.396H157.5V182.937C157.5 180.415 154.485 178.36 150.776 178.36C147.068 178.36 144.055 180.415 144.055 182.937V190.396H142.065V182.937C142.065 179.666 145.976 177.004 150.776 177.004C155.577 177.004 159.488 179.666 159.488 182.937V190.396Z" fill="white"/>
</g>
<g opacity="0.6">
<path d="M60.6819 135.424C60.6819 123.053 52.5114 113.024 42.4322 113.024C32.353 113.024 24.1967 123.053 24.1967 135.424H60.6819Z" fill="white"/>
<path d="M52.8808 101.521C52.8808 96.0451 48.0866 91.6106 42.1714 91.6106C36.2562 91.6106 31.4665 96.0451 31.4665 101.521C31.4665 106.998 36.2573 111.439 42.1714 111.439C48.0855 111.439 52.8808 107.001 52.8808 101.521Z" fill="white"/>
</g>
<g opacity="0.6">
<path d="M383.574 165.994C382.292 169.844 379.765 173.265 375.996 176.253C372.23 179.24 368.461 180.731 364.695 180.731L363.241 180.677C362.851 180.677 362.276 180.562 361.522 180.329C360.767 180.095 360.156 179.527 359.687 178.63L358.991 176.15C357.352 177.339 355.803 178.27 354.326 178.955C353.434 179.312 352.53 179.603 351.618 179.818C350.705 180.032 349.783 180.144 348.848 180.144C347.569 180.144 346.248 179.893 344.89 179.387C343.103 178.743 341.794 177.656 340.958 176.13C340.121 174.608 339.709 172.787 339.709 170.667C339.709 168.908 339.934 167.239 340.377 165.661C340.822 164.081 341.468 162.578 342.329 161.14C344.419 157.373 346.831 154.393 349.548 152.204C352.539 149.833 355.686 148.648 358.991 148.648H360.504L361.49 148.854C362.851 149.134 364.034 149.749 365.044 150.698L367.261 153.286L369.005 149.888H375.241L365.805 171.245L364.99 173.402C364.751 174.12 364.641 174.732 364.641 175.236C364.641 175.99 364.851 176.42 365.282 176.53L366.271 176.744L367.14 176.797C370.292 176.797 373.454 174.854 376.639 170.968C379.824 167.076 381.416 162.9 381.416 158.439C381.416 153.435 379.262 149.22 374.95 145.799C372.81 144.108 370.48 142.829 367.956 141.964C365.434 141.1 362.719 140.668 359.801 140.668H357.474C350.052 141.32 343.715 144.196 338.452 149.3C333.191 154.407 330.557 160.17 330.557 166.591C330.557 172.436 332.729 177.196 337.083 180.876C341.667 184.699 347.801 186.614 355.492 186.614C360.617 186.614 365.378 185.75 369.764 184.025C371.779 183.197 374.347 181.812 377.453 179.875L379.725 181.381C375.957 184.221 372.329 186.346 368.829 187.747C364.598 189.4 360.131 190.224 355.434 190.224C347.357 190.224 340.403 188.121 334.581 183.91C328.479 179.451 325.43 173.816 325.43 167.012C325.43 159.851 328.402 153.192 334.342 147.041C340.83 140.38 348.578 137.054 357.589 137.054C365.355 137.054 371.84 139.055 377.044 143.048C382.247 147.045 384.853 152.189 384.853 158.49C384.853 160.904 384.421 163.401 383.571 165.995L383.574 165.994ZM362.307 151.723C361.605 151.472 360.971 151.342 360.386 151.342C358.325 151.342 356.073 152.598 353.627 155.112C351.647 157.156 349.9 159.741 348.39 162.857C347.609 164.617 346.945 166.267 346.406 167.812C345.745 169.82 345.412 171.488 345.412 172.818C345.412 173.747 345.587 174.594 345.937 175.346C346.285 175.956 346.945 176.474 347.921 176.905C348.847 177.228 349.781 177.39 350.715 177.39C353.393 177.39 355.878 175.634 358.171 172.118C358.403 171.759 358.773 171.11 359.274 170.179C359.78 169.246 360.443 168.008 361.258 166.467C362.306 164.564 363.125 162.807 363.701 161.192C364.48 159.11 364.869 157.352 364.869 155.917C364.869 154.875 364.657 154.014 364.226 153.335C363.877 152.619 363.24 152.079 362.305 151.723H362.307Z" fill="white"/>
</g>
</g>
</g>
<defs>
<clipPath id="clip0_1091_13541">
<rect width="327" height="216" fill="white"/>
</clipPath>
</defs>
</svg>
