<svg width="220" height="193" viewBox="0 0 220 193" fill="none" xmlns="http://www.w3.org/2000/svg">
<mask id="path-1-inside-1_317_2903" fill="white">
<path fill-rule="evenodd" clip-rule="evenodd" d="M0 12.6953C0 6.0679 5.37257 0.695312 12 0.695312H114.756C117.373 0.695312 119.918 1.55088 122.004 3.13165L145.15 20.6734C147.235 22.2541 149.781 23.1097 152.398 23.1097H208C214.627 23.1097 220 28.4823 220 35.1097V180.695C220 187.323 214.627 192.695 208 192.695H12C5.37258 192.695 0 187.323 0 180.695V23.2026V23.1097V12.6953Z"/>
</mask>
<path fill-rule="evenodd" clip-rule="evenodd" d="M0 12.6953C0 6.0679 5.37257 0.695312 12 0.695312H114.756C117.373 0.695312 119.918 1.55088 122.004 3.13165L145.15 20.6734C147.235 22.2541 149.781 23.1097 152.398 23.1097H208C214.627 23.1097 220 28.4823 220 35.1097V180.695C220 187.323 214.627 192.695 208 192.695H12C5.37258 192.695 0 187.323 0 180.695V23.2026V23.1097V12.6953Z" fill="#F5F6FF"/>
<path fill-rule="evenodd" clip-rule="evenodd" d="M0 12.6953C0 6.0679 5.37257 0.695312 12 0.695312H114.756C117.373 0.695312 119.918 1.55088 122.004 3.13165L145.15 20.6734C147.235 22.2541 149.781 23.1097 152.398 23.1097H208C214.627 23.1097 220 28.4823 220 35.1097V180.695C220 187.323 214.627 192.695 208 192.695H12C5.37258 192.695 0 187.323 0 180.695V23.2026V23.1097V12.6953Z" fill="url(#paint0_linear_317_2903)" fill-opacity="0.2"/>
<path d="M145.15 20.6734L145.754 19.8764L145.15 20.6734ZM114.756 -0.304688H12V1.69531H114.756V-0.304688ZM121.4 3.92862L144.546 21.4703L145.754 19.8764L122.608 2.33467L121.4 3.92862ZM208 22.1097H152.398V24.1097H208V22.1097ZM221 180.695V35.1097H219V180.695H221ZM12 193.695H208V191.695H12V193.695ZM-1 23.2026V180.695H1V23.2026H-1ZM-1 23.1097V23.2026H1V23.1097H-1ZM-1 12.6953V23.1097H1V12.6953H-1ZM12 191.695C5.92487 191.695 1 186.77 1 180.695H-1C-1 187.875 4.8203 193.695 12 193.695V191.695ZM219 180.695C219 186.77 214.075 191.695 208 191.695V193.695C215.18 193.695 221 187.875 221 180.695H219ZM208 24.1097C214.075 24.1097 219 29.0346 219 35.1097H221C221 27.93 215.18 22.1097 208 22.1097V24.1097ZM144.546 21.4703C146.805 23.1828 149.563 24.1097 152.398 24.1097V22.1097C149.999 22.1097 147.666 21.3254 145.754 19.8764L144.546 21.4703ZM12 -0.304688C4.82028 -0.304688 -1 5.51561 -1 12.6953H1C1 6.62018 5.92486 1.69531 12 1.69531V-0.304688ZM114.756 1.69531C117.155 1.69531 119.488 2.47958 121.4 3.92862L122.608 2.33467C120.349 0.622177 117.591 -0.304688 114.756 -0.304688V1.69531Z" fill="#A8ACFF" mask="url(#path-1-inside-1_317_2903)"/>
<defs>
<linearGradient id="paint0_linear_317_2903" x1="251.394" y1="236.775" x2="14.2003" y2="102.549" gradientUnits="userSpaceOnUse">
<stop stop-color="#5566F5"/>
<stop offset="1" stop-color="#82AAFA" stop-opacity="0"/>
</linearGradient>
</defs>
</svg>
