<svg width="103" height="132" viewBox="0 0 103 132" fill="none" xmlns="http://www.w3.org/2000/svg">
<g opacity="0.2">
<path d="M24.724 0C24.724 0 37.0204 12.7502 65.8452 16.4632C93.4363 20.0218 101.768 12.0107 101.768 12.0107C101.768 12.0107 118.427 110.793 24.7242 165.077C-68.9857 110.793 -52.3265 12.0107 -52.3265 12.0107C-52.3265 12.0107 -43.9947 20.0218 -16.404 16.4632C12.4253 12.7502 24.7242 0 24.7242 0L24.724 0Z" fill="url(#paint0_radial_644_11844)"/>
<path d="M24.7242 158.682L23.4752 157.915C-11.7206 136.301 -34.2802 105.68 -43.578 66.9036C-47.8722 48.9967 -48.2561 33.3777 -47.8221 23.4287L-47.6953 20.5171L-44.8638 21.2198C-37.0388 23.1611 -27.1038 23.3979 -15.6974 21.9283C3.6629 19.4344 16.2324 13.0392 23.3674 8.11295L24.7237 7.177L26.08 8.11295C33.2151 13.0392 45.7835 19.435 65.1402 21.9283C76.5363 23.3973 86.4688 23.1628 94.2903 21.2239L97.1229 20.5225L97.2475 23.4354C97.6826 33.587 97.2767 49.4756 92.8718 67.5203C83.4762 106.008 60.9688 136.422 25.9736 157.915L24.7244 158.682L24.7242 158.682ZM-43.1506 26.4705C-43.3743 36.1205 -42.7162 50.0411 -38.9392 65.7932C-30.0565 102.837 -8.64121 132.197 24.7239 153.08C57.897 132.315 79.2618 103.156 88.237 66.3913C92.1183 50.4896 92.7979 36.3159 92.5739 26.4745C84.686 27.9747 75.2012 28.0299 64.5295 26.6543C45.3857 24.1888 32.4808 18.0223 24.7233 12.9448C16.9652 18.0217 4.05981 24.1884 -15.0874 26.6543C-25.773 28.0319 -35.2612 27.9743 -43.1508 26.4705H-43.1506Z" fill="white"/>
</g>
<defs>
<radialGradient id="paint0_radial_644_11844" cx="0" cy="0" r="1" gradientUnits="userSpaceOnUse" gradientTransform="translate(24.1759 74.3737) scale(101.907 101.802)">
<stop offset="0.022" stop-color="#D4FCE0"/>
<stop offset="1" stop-color="#BAE8C8"/>
</radialGradient>
</defs>
</svg>
