<svg width="24" height="23" viewBox="0 0 24 23" fill="none" xmlns="http://www.w3.org/2000/svg">
<path d="M15.3498 2.38647C15.3916 2.38647 15.4335 2.38647 15.4778 2.38647C15.5806 3.65587 15.096 4.60436 14.5072 5.29123C13.9294 5.97335 13.1382 6.63493 11.8585 6.53454C11.7731 5.28333 12.2585 4.40518 12.8465 3.7199C13.3919 3.08124 14.3918 2.51294 15.3498 2.38647Z" fill="black"/>
<path d="M19.2236 15.599C19.2236 15.6116 19.2236 15.6227 19.2236 15.6345C18.8639 16.7237 18.351 17.6572 17.725 18.5235C17.1535 19.3099 16.4532 20.3683 15.2028 20.3683C14.1223 20.3683 13.4046 19.6735 12.2972 19.6546C11.1258 19.6356 10.4816 20.2355 9.41064 20.3865C9.28812 20.3865 9.16561 20.3865 9.04547 20.3865C8.25901 20.2727 7.62431 19.6498 7.16192 19.0886C5.79847 17.4303 4.74485 15.2883 4.54883 12.5472C4.54883 12.2785 4.54883 12.0105 4.54883 11.7418C4.63182 9.77997 5.58506 8.18492 6.85208 7.4119C7.52077 7.00089 8.44001 6.65074 9.46359 6.80724C9.90227 6.87521 10.3504 7.02539 10.7433 7.17399C11.1156 7.31705 11.5811 7.57077 12.0222 7.55734C12.3209 7.54864 12.6181 7.39293 12.9193 7.28306C13.8014 6.96453 14.6661 6.59936 15.8058 6.77088C17.1756 6.97797 18.1478 7.58658 18.7485 8.52559C17.5898 9.26304 16.6737 10.3744 16.8302 12.2721C16.9693 13.996 17.9716 15.0046 19.2236 15.599Z" fill="black"/>
</svg>
