<svg width="25" height="24" viewBox="0 0 25 24" fill="none" xmlns="http://www.w3.org/2000/svg">
<path d="M4.21667 15.4042C5.13333 19.1209 8.5 21.8959 12.5 21.8959C13.9583 21.8959 15.3333 21.5293 16.5417 20.8709C16.1583 20.4543 15.8 19.9876 15.5583 19.5042C14.6333 19.9709 13.6 20.2292 12.5 20.2292C8.70833 20.2292 5.625 17.1459 5.625 13.3542C5.625 12.4959 5.78333 11.6792 6.06667 10.9209L5.95833 10.8459C5.69167 10.6626 5.21667 10.3209 4.71667 9.86258C4.50833 10.3209 4.34167 10.8042 4.21667 11.3042C3.24167 11.4792 2.5 12.3292 2.5 13.3542C2.5 14.3792 3.24167 15.2292 4.21667 15.4042Z" fill="#2E2E2E"/>
<path d="M22.5 13.3542C22.5 12.3292 21.7667 11.4792 20.7833 11.3126C20.1583 8.76258 18.3833 6.66258 16.0333 5.58758C16 3.66258 14.4333 2.10425 12.5 2.10425C11.025 2.10425 9.76667 3.00425 9.23333 4.28758C10.0583 4.72091 10.625 5.56258 10.625 6.53758C10.625 6.60425 10.625 6.67925 10.6083 6.74591C11.2083 6.57092 11.8417 6.47925 12.5 6.47925C13.0417 6.47925 13.5667 6.54592 14.0667 6.67092C13.7333 7.17925 13.1583 7.52092 12.5 7.52092C12.0417 7.52092 11.6667 7.89592 11.6667 8.35425C11.6667 8.81258 12.0417 9.18758 12.5 9.18758C13.875 9.18758 15.0583 8.39592 15.6417 7.24591C17.8583 8.38758 19.375 10.6959 19.375 13.3542C19.375 14.2376 19.2083 15.0709 18.9083 15.8459C18.9917 15.8876 19.0833 15.9292 19.1667 15.9709C19.5583 15.7626 20 15.6459 20.4583 15.6459C20.5417 15.6459 20.625 15.6459 20.7083 15.6626C20.7417 15.5792 20.7583 15.4959 20.7833 15.4042C21.7583 15.2292 22.5 14.3792 22.5 13.3542ZM12.5 4.81258C11.9 4.81258 11.3167 4.87925 10.75 4.99591C11.0167 4.27925 11.7 3.77091 12.5 3.77091C13.3 3.77091 13.9833 4.27925 14.25 4.99591C13.6833 4.87925 13.1 4.81258 12.5 4.81258Z" fill="#2E2E2E"/>
<path d="M12.5 17.7251C13.5133 17.7251 14.5267 17.3393 15.2975 16.5676C15.5417 16.3234 15.5417 15.9276 15.2975 15.6834C15.0533 15.4392 14.6575 15.4392 14.4133 15.6834C13.39 16.7059 11.6083 16.7059 10.585 15.6834C10.3408 15.4392 9.945 15.4392 9.70083 15.6834C9.45667 15.9276 9.45667 16.3234 9.70083 16.5676C10.4733 17.3393 11.4867 17.7251 12.5 17.7251Z" fill="#2E2E2E"/>
<path d="M19.1667 21.4792C19.1667 21.4792 21.875 19.6134 21.875 18.2001C21.875 17.4809 21.2417 16.8959 20.4617 16.8959C19.8825 16.8959 19.3833 17.2176 19.1667 17.6784C18.95 17.2176 18.4508 16.8959 17.8717 16.8959C17.0925 16.8959 16.4583 17.4809 16.4583 18.2001C16.4583 19.6134 19.1667 21.4792 19.1667 21.4792Z" fill="#2E2E2E"/>
<path d="M8.125 13.5626C8.47 13.5626 8.75 13.2826 8.75 12.9376C8.75 12.7084 8.93667 12.5209 9.16667 12.5209C9.39667 12.5209 9.58333 12.7084 9.58333 12.9376C9.58333 13.2826 9.86333 13.5626 10.2083 13.5626C10.5533 13.5626 10.8333 13.2826 10.8333 12.9376C10.8333 12.0184 10.0858 11.2709 9.16667 11.2709C8.2475 11.2709 7.5 12.0184 7.5 12.9376C7.5 13.2826 7.78 13.5626 8.125 13.5626Z" fill="#2E2E2E"/>
<path d="M15.8333 12.5209C16.0633 12.5209 16.25 12.7084 16.25 12.9376C16.25 13.2826 16.53 13.5626 16.875 13.5626C17.22 13.5626 17.5 13.2826 17.5 12.9376C17.5 12.0184 16.7525 11.2709 15.8333 11.2709C14.9142 11.2709 14.1667 12.0184 14.1667 12.9376C14.1667 13.2826 14.4467 13.5626 14.7917 13.5626C15.1367 13.5626 15.4167 13.2826 15.4167 12.9376C15.4167 12.7084 15.6033 12.5209 15.8333 12.5209Z" fill="#2E2E2E"/>
<path d="M9.375 6.53341C9.375 5.81425 8.74167 5.22925 7.96167 5.22925C7.3825 5.22925 6.88333 5.55092 6.66667 6.01175C6.45 5.55092 5.95083 5.22925 5.37167 5.22925C4.59167 5.22925 3.95833 5.81425 3.95833 6.53341C3.95833 7.94675 6.66667 9.81258 6.66667 9.81258C6.66667 9.81258 9.375 7.94675 9.375 6.53341Z" fill="#2E2E2E"/>
</svg>
