<svg width="24" height="25" viewBox="0 0 24 25" fill="none" xmlns="http://www.w3.org/2000/svg">
<path d="M7.94922 5.3H5.24922C4.25511 5.3 3.44922 6.10589 3.44922 7.1V9.8M7.94922 5.3H15.1492M7.94922 5.3V3.5M7.94922 5.3V7.1M3.44922 9.8H19.6492V7.1C19.6492 6.10589 18.8434 5.3 17.8492 5.3H15.1492M3.44922 9.8V19.7C3.44922 20.6941 4.25511 21.5 5.24922 21.5H9.74922M15.1492 5.3V3.5M15.1492 5.3V7.1M16.0492 15.425V17L17.1742 18.125M20.5492 17C20.5492 19.4853 18.5345 21.5 16.0492 21.5C13.564 21.5 11.5492 19.4853 11.5492 17C11.5492 14.5147 13.564 12.5 16.0492 12.5C18.5345 12.5 20.5492 14.5147 20.5492 17Z" stroke="#2E2E2E" stroke-width="1.3" stroke-linecap="round" stroke-linejoin="round"/>
</svg>
