<svg width="24" height="24" viewBox="0 0 24 24" fill="none" xmlns="http://www.w3.org/2000/svg">
<path d="M21.8612 9.35017C21.8137 9.21177 21.6452 9.10413 21.5045 9.10413C20.8953 9.10413 20.2862 9.10413 19.677 9.10413C19.5364 9.10413 19.3678 9.21177 19.3202 9.35017C19.2737 9.48564 19.2389 9.60651 19.2158 9.72018L17.9951 6.34293C17.7937 5.78602 17.2605 5.41187 16.6684 5.41187H7.33177C6.73959 5.41187 6.20645 5.78602 6.00501 6.34303L4.78422 9.72058C4.76106 9.60681 4.72629 9.48579 4.67972 9.35017C4.63218 9.21177 4.46363 9.10413 4.323 9.10413C3.71384 9.10413 3.10469 9.10413 2.49549 9.10413C2.35486 9.10413 2.1863 9.21177 2.13876 9.35017C1.95369 9.88904 1.95379 10.1975 2.13881 10.7364C2.18635 10.8748 2.35491 10.9825 2.49554 10.9825C3.10474 10.9825 3.71389 10.9825 4.32305 10.9825C4.32477 10.9825 4.32659 10.982 4.32837 10.982L4.3008 11.0583C3.92816 11.1821 3.65911 11.5329 3.65911 11.9472V14.7753V15.0084V18.1378C3.65911 18.3866 3.86071 18.5882 4.10949 18.5882H6.37618C6.6249 18.5882 6.82655 18.3866 6.82655 18.1378V15.9454H17.1735V18.1378C17.1735 18.3866 17.3752 18.5882 17.6239 18.5882H19.8906C20.1394 18.5882 20.341 18.3866 20.341 18.1378V15.0084V14.7753V11.9472C20.341 11.533 20.072 11.1823 19.6995 11.0584L19.6719 10.982C19.6736 10.982 19.6754 10.9824 19.677 10.9824C20.2862 10.9824 20.8953 10.9824 21.5045 10.9824C21.6452 10.9824 21.8137 10.8748 21.8613 10.7364C22.0463 10.1975 22.0462 9.88904 21.8612 9.35017ZM7.50422 7.06925H16.4946L17.9191 11.0101H6.07981L7.50422 7.06925ZM7.75498 13.7863H5.8587C5.45185 13.7863 5.12209 13.4565 5.12209 13.0497C5.12209 12.6429 5.4518 12.3131 5.8587 12.3131H7.75498C8.16177 12.3131 8.49159 12.6428 8.49159 13.0497C8.49164 13.4565 8.16177 13.7863 7.75498 13.7863ZM18.1412 13.7863H16.245C15.8382 13.7863 15.5083 13.4565 15.5083 13.0497C15.5083 12.6429 15.8382 12.3131 16.245 12.3131H18.1412C18.5481 12.3131 18.8778 12.6428 18.8778 13.0497C18.8778 13.4565 18.5481 13.7863 18.1412 13.7863Z" fill="#2E2E2E"/>
</svg>
