<svg width="24" height="24" viewBox="0 0 24 24" fill="none" xmlns="http://www.w3.org/2000/svg">
<path d="M3 3.8999H6.15L8.27252 13.2982C8.45787 14.1188 9.18658 14.6999 10.0279 14.6999H17.7561C18.5998 14.6999 19.3302 14.1139 19.5132 13.2904L21 6.5999H7.05M11.1 19.1999C11.1 19.697 10.6971 20.0999 10.2 20.0999C9.70295 20.0999 9.3 19.697 9.3 19.1999C9.3 18.7028 9.70295 18.2999 10.2 18.2999C10.6971 18.2999 11.1 18.7028 11.1 19.1999ZM18.3 19.1999C18.3 19.697 17.8971 20.0999 17.4 20.0999C16.9029 20.0999 16.5 19.697 16.5 19.1999C16.5 18.7028 16.9029 18.2999 17.4 18.2999C17.8971 18.2999 18.3 18.7028 18.3 19.1999Z" stroke="#2E2E2E" stroke-width="1.3" stroke-linecap="round" stroke-linejoin="round"/>
</svg>
