<svg width="25" height="24" viewBox="0 0 25 24" fill="none" xmlns="http://www.w3.org/2000/svg">
<path d="M6.74547 12.6267C6.73187 12.5771 6.72461 12.5248 6.72461 12.4709V9.85938C6.72461 9.05988 7.26211 8.36027 8.03461 8.15426L11.1364 7.32711V3.17648C11.1364 2.52672 11.6631 2 12.3129 2C12.5128 2 12.7094 2.05094 12.8842 2.14805L17.0018 4.43562C17.3753 4.64312 17.607 5.0368 17.607 5.46406V9.59367L11.9995 11.6498C11.3044 11.9046 10.8423 12.5662 10.8423 13.3066V15.4314L7.33824 13.4847C7.00512 13.2996 6.79695 12.9767 6.74547 12.6267ZM7.90109 11.0964L10.8464 9.36383C11.0261 9.25813 11.1364 9.06527 11.1364 8.8568V8.54465L8.33777 9.29094C8.08027 9.35961 7.90109 9.59281 7.90109 9.8593V11.0964ZM17.607 10.8467V11.798C17.607 12.4234 17.276 13.002 16.737 13.3191L12.6069 15.7486C12.4254 15.8553 12.2223 15.9095 12.0187 15.9109V13.3066C12.0187 13.0598 12.1727 12.8393 12.4045 12.7543L17.607 10.8467ZM12.0187 17.0874L12.0271 17.0874C12.4361 17.0845 12.8388 16.9751 13.1952 16.7674V18.4336L15.5866 17.3299C15.697 16.9686 16.0331 16.7059 16.4305 16.7059C16.9178 16.7059 17.3128 17.1009 17.3128 17.5882C17.3128 18.0755 16.9178 18.4706 16.4305 18.4706C16.3057 18.4706 16.1871 18.4447 16.0796 18.398L14.0106 19.3529L16.0796 20.3078C16.1871 20.2611 16.3057 20.2353 16.4305 20.2353C16.9178 20.2353 17.3128 20.6303 17.3128 21.1176C17.3128 21.6049 16.9178 22 16.4305 22C16.033 22 15.697 21.7372 15.5866 21.376L12.607 20.0008L9.62734 21.376C9.51687 21.7373 9.18082 22 8.78344 22C8.29613 22 7.90109 21.605 7.90109 21.1177C7.90109 20.6304 8.29613 20.2353 8.78344 20.2353C8.90816 20.2353 9.0268 20.2612 9.13434 20.3079L11.2033 19.353L9.13434 18.3981C9.0268 18.4448 8.90816 18.4706 8.78344 18.4706C8.29613 18.4706 7.90109 18.0756 7.90109 17.5883C7.90109 17.101 8.29613 16.7059 8.78344 16.7059C9.18086 16.7059 9.51691 16.9687 9.62734 17.3299L12.0187 18.4336V17.0874Z" fill="#2E2E2E"/>
</svg>
