<svg width="24" height="24" viewBox="0 0 24 24" fill="none" xmlns="http://www.w3.org/2000/svg">
<path d="M20.0098 9.8312C19.8548 9.87756 19.7245 9.98359 19.6476 10.126C19.5707 10.2684 19.5535 10.4355 19.5998 10.5906C20.103 12.2812 20.028 14.0912 19.3868 15.7344C18.7456 17.3775 17.5747 18.76 16.0595 19.6629C14.5443 20.5658 12.7712 20.9376 11.0209 20.7196C9.27062 20.5015 7.64301 19.706 6.39564 18.4589C5.14827 17.2119 4.35239 15.5844 4.13393 13.8342C3.91547 12.0839 4.28692 10.3108 5.18949 8.79535C6.09206 7.27992 7.47421 6.10875 9.11723 5.46716C10.7602 4.82558 12.5703 4.75021 14.261 5.25299C14.4162 5.29915 14.5834 5.28176 14.7258 5.20464C14.8682 5.12751 14.9742 4.99697 15.0204 4.84174C15.0665 4.6865 15.0491 4.51928 14.972 4.37687C14.8949 4.23445 14.7643 4.12851 14.6091 4.08234C12.6582 3.50194 10.5695 3.58869 8.67345 4.32884C6.77741 5.06899 5.18233 6.42028 4.14061 8.16889C3.09889 9.9175 2.67003 11.9636 2.92189 13.9833C3.17375 16.0031 4.09194 17.8811 5.53118 19.3204C6.97042 20.7596 8.8485 21.6778 10.8683 21.9297C12.888 22.1815 14.9341 21.7527 16.6827 20.711C18.4313 19.6692 19.7826 18.0742 20.5227 16.1781C21.2629 14.2821 21.3496 12.1933 20.7692 10.2425C20.7465 10.1655 20.7088 10.0938 20.6584 10.0314C20.6079 9.96903 20.5455 9.91725 20.475 9.87904C20.4044 9.84083 20.327 9.81693 20.2472 9.80872C20.1673 9.80051 20.0867 9.80815 20.0098 9.8312Z" fill="#2E2E2E"/>
<path fill-rule="evenodd" clip-rule="evenodd" d="M14.9251 10.0139C15.1175 10.1757 15.1422 10.4629 14.9804 10.6553L9.80703 16.8055C9.64519 16.9979 9.35802 17.0227 9.16562 16.8608C8.97322 16.699 8.94845 16.4118 9.11029 16.2194L14.2837 10.0692C14.4455 9.8768 14.7327 9.85203 14.9251 10.0139Z" fill="#2E2E2E"/>
<path fill-rule="evenodd" clip-rule="evenodd" d="M10.0579 10.6484C9.60385 10.6484 9.24294 11.012 9.24294 11.4517C9.24294 11.8914 9.60384 12.255 10.0579 12.255C10.512 12.255 10.8729 11.8914 10.8729 11.4517C10.8729 11.012 10.512 10.6484 10.0579 10.6484ZM8.33247 11.4517C8.33247 10.5013 9.10894 9.73794 10.0579 9.73794C11.0069 9.73794 11.7833 10.5013 11.7833 11.4517C11.7833 12.4022 11.0069 13.1655 10.0579 13.1655C9.10894 13.1655 8.33247 12.4022 8.33247 11.4517Z" fill="#2E2E2E"/>
<path fill-rule="evenodd" clip-rule="evenodd" d="M13.9427 14.6417C13.4887 14.6417 13.1278 15.0053 13.1278 15.445C13.1278 15.8847 13.4887 16.2483 13.9427 16.2483C14.3968 16.2483 14.7577 15.8847 14.7577 15.445C14.7577 15.0053 14.3968 14.6417 13.9427 14.6417ZM12.2173 15.445C12.2173 14.4946 12.9938 13.7312 13.9427 13.7312C14.8917 13.7312 15.6681 14.4946 15.6681 15.445C15.6681 16.3954 14.8917 17.1588 13.9427 17.1588C12.9938 17.1588 12.2173 16.3954 12.2173 15.445Z" fill="#2E2E2E"/>
<path d="M17.9362 2C17.7551 2 17.5814 2.07194 17.4534 2.2C17.3253 2.32806 17.2534 2.50174 17.2534 2.68285V7.86293L16.3705 6.98001C16.2417 6.85562 16.0692 6.78679 15.8901 6.78835C15.7111 6.7899 15.5398 6.86172 15.4132 6.98832C15.2866 7.11493 15.2148 7.2862 15.2132 7.46524C15.2117 7.64428 15.2805 7.81676 15.4049 7.94555L17.4526 9.99327C17.581 10.1213 17.7549 10.1931 17.9362 10.1931C18.1175 10.1931 18.2914 10.1213 18.4198 9.99327L20.4675 7.94555C20.5919 7.81676 20.6607 7.64428 20.6592 7.46524C20.6576 7.2862 20.5858 7.11493 20.4592 6.98832C20.3326 6.86172 20.1613 6.7899 19.9823 6.78835C19.8033 6.78679 19.6308 6.85562 19.502 6.98001L18.6191 7.86293V2.68285C18.6191 2.50174 18.5471 2.32806 18.4191 2.2C18.291 2.07194 18.1173 2 17.9362 2Z" fill="#2E2E2E"/>
</svg>
