<svg width="24" height="24" viewBox="0 0 24 24" fill="none" xmlns="http://www.w3.org/2000/svg">
<path fill-rule="evenodd" clip-rule="evenodd" d="M12.2833 2.90837C10.5141 2.84945 8.72669 3.33213 7.1835 4.36221C5.45029 5.52036 4.23903 7.23062 3.68112 9.14252C3.52705 9.12371 3.34255 9.13201 3.12348 9.19397C2.30556 9.42604 1.69039 10.0963 1.41378 10.6865C1.05502 11.4558 0.903718 12.4731 1.06332 13.5234C1.22182 14.5704 1.66411 15.4334 2.21732 15.9692C2.77219 16.5052 3.3987 16.6795 4.02107 16.5486C4.9477 16.3509 5.40714 16.2029 5.27741 15.3396L4.64924 11.1548C4.77593 8.88998 5.94846 6.7579 7.9096 5.44678C10.5346 3.69338 13.9761 3.80568 16.48 5.72782C18.2217 7.06327 19.233 9.06424 19.3497 11.1648L18.9105 14.0921C17.9308 16.7732 15.5019 18.6304 12.6913 18.894H10.8198C10.3368 18.894 9.9479 19.2829 9.9479 19.7653V20.225C9.9479 20.7077 10.3368 21.0966 10.8198 21.0966H13.1795C13.6622 21.0966 14.0494 20.7077 14.0494 20.225V19.9846C16.1688 19.4674 18.0187 18.1649 19.2233 16.3484L19.9793 16.5489C20.5945 16.7085 21.2284 16.5052 21.783 15.9694C22.3363 15.4334 22.7783 14.5706 22.937 13.5237C23.0972 12.4734 22.9415 11.4577 22.5869 10.6868C22.2309 9.91591 21.7006 9.42631 21.0885 9.25067C20.8321 9.17682 20.5538 9.14971 20.3151 9.14252C19.8106 7.41373 18.7719 5.8415 17.2749 4.69359C15.8031 3.5642 14.0525 2.96646 12.2833 2.90837Z" fill="#2E2E2E"/>
<path fill-rule="evenodd" clip-rule="evenodd" d="M15.0452 10.437C15.669 10.437 16.1746 10.9427 16.176 11.5681C16.1746 12.1918 15.669 12.6988 15.0452 12.6988C14.4198 12.6988 13.9128 12.1918 13.9128 11.5681C13.9128 10.9429 14.4201 10.437 15.0452 10.437ZM11.9998 10.437C12.6249 10.437 13.1305 10.9427 13.1305 11.5681C13.1305 12.1918 12.6249 12.6988 11.9998 12.6988C11.3741 12.6988 10.8685 12.1918 10.8685 11.5681C10.8685 10.9429 11.3741 10.437 11.9998 10.437ZM8.95544 10.437C9.57919 10.437 10.0862 10.9427 10.0862 11.5681C10.0862 12.1918 9.57919 12.6988 8.95544 12.6988C8.33031 12.6988 7.8244 12.1918 7.8244 11.5681C7.8244 10.9429 8.33031 10.437 8.95544 10.437ZM11.9998 5.57928C8.68326 5.57928 6.0107 8.16388 6.0107 11.5681C6.0107 13.2031 6.62891 14.6481 7.63603 15.7083L7.27866 17.3104C7.16082 17.8376 7.5265 18.1922 8.00032 17.9284L9.56481 17.0557C10.3083 17.3785 11.1307 17.5569 11.9998 17.5569C15.3174 17.5569 17.9883 14.9739 17.9883 11.5681C17.9883 8.16388 15.3174 5.57928 11.9998 5.57928Z" fill="#2E2E2E"/>
</svg>
