<svg width="25" height="24" viewBox="0 0 25 24" fill="none" xmlns="http://www.w3.org/2000/svg">
<path d="M5 20.25C5 20.4489 5.07902 20.6397 5.21967 20.7803C5.36032 20.921 5.55109 21 5.75 21H19.25C19.4489 21 19.6397 20.921 19.7803 20.7803C19.921 20.6397 20 20.4489 20 20.25V18.75H5V20.25Z" fill="#2E2E2E"/>
<path d="M19.25 3H5.75C5.55109 3 5.36032 3.07902 5.21967 3.21967C5.07902 3.36032 5 3.55109 5 3.75V18H20V3.75C20 3.55109 19.921 3.36032 19.7803 3.21967C19.6397 3.07902 19.4489 3 19.25 3ZM11 4.5C11.1483 4.5 11.2933 4.54399 11.4167 4.6264C11.54 4.70881 11.6361 4.82594 11.6929 4.96299C11.7497 5.10003 11.7645 5.25083 11.7356 5.39632C11.7067 5.5418 11.6352 5.67544 11.5303 5.78033C11.4254 5.88522 11.2918 5.95665 11.1463 5.98559C11.0008 6.01453 10.85 5.99968 10.713 5.94291C10.5759 5.88614 10.4588 5.79001 10.3764 5.66668C10.294 5.54334 10.25 5.39834 10.25 5.25C10.25 5.05109 10.329 4.86032 10.4697 4.71967C10.6103 4.57902 10.8011 4.5 11 4.5ZM7.25 5.25C7.25 5.10166 7.29399 4.95666 7.3764 4.83332C7.45881 4.70999 7.57594 4.61386 7.71299 4.55709C7.85003 4.50032 8.00083 4.48547 8.14632 4.51441C8.2918 4.54335 8.42544 4.61478 8.53033 4.71967C8.63522 4.82456 8.70665 4.9582 8.73559 5.10368C8.76453 5.24917 8.74968 5.39997 8.69291 5.53701C8.63614 5.67406 8.54001 5.79119 8.41668 5.8736C8.29334 5.95601 8.14834 6 8 6C7.80109 6 7.61032 5.92098 7.46967 5.78033C7.32902 5.63968 7.25 5.44891 7.25 5.25ZM12.5 16.5C11.61 16.5 10.74 16.2361 9.99993 15.7416C9.25991 15.2471 8.68314 14.5443 8.34254 13.7221C8.00195 12.8998 7.91283 11.995 8.08647 11.1221C8.2601 10.2492 8.68868 9.44736 9.31802 8.81802C9.94736 8.18868 10.7492 7.7601 11.6221 7.58647C12.495 7.41283 13.3998 7.50195 14.2221 7.84254C15.0443 8.18314 15.7471 8.75991 16.2416 9.49993C16.7361 10.24 17 11.11 17 12C16.9987 13.1931 16.5241 14.3369 15.6805 15.1805C14.8369 16.0241 13.6931 16.4987 12.5 16.5ZM17.75 6H14.75V4.5H17.75V6Z" fill="#2E2E2E"/>
<path d="M14.9 10.202C14.5225 9.69777 13.9959 9.32518 13.3948 9.13701C12.7937 8.94884 12.1486 8.95463 11.551 9.15356C10.9534 9.35249 10.4335 9.73448 10.0652 10.2454C9.69677 10.7563 9.49852 11.3701 9.49852 12C9.49852 12.6299 9.69677 13.2437 10.0652 13.7546C10.4335 14.2655 10.9534 14.6475 11.551 14.8464C12.1486 15.0454 12.7937 15.0512 13.3948 14.863C13.9959 14.6748 14.5225 14.3022 14.9 13.798C14.6206 13.5888 14.3939 13.3174 14.2377 13.0053C14.0815 12.6932 14.0001 12.349 14.0001 12C14.0001 11.651 14.0815 11.3068 14.2377 10.9947C14.3939 10.6826 14.6206 10.4112 14.9 10.202Z" fill="#2E2E2E"/>
</svg>
