<svg width="24" height="24" viewBox="0 0 24 24" fill="none" xmlns="http://www.w3.org/2000/svg">
<path d="M3 3L21 21M7.24149 7.25034C4.49831 9.11574 3 12 3 12C3 12 6.27272 18.3 12 18.3C13.8453 18.3 15.4357 17.6461 16.744 16.7596M11.1 5.7524C11.3929 5.71812 11.6929 5.7 12 5.7C17.7272 5.7 21 12 21 12C21 12 20.3774 13.1985 19.2 14.5501M13.8 14.0125C13.3223 14.44 12.6916 14.7 12 14.7C10.5088 14.7 9.3 13.4912 9.3 12C9.3 11.2587 9.59874 10.5872 10.0824 10.0993" stroke="#2E2E2E" stroke-width="1.5" stroke-linecap="round" stroke-linejoin="round"/>
</svg>
