<svg width="24" height="24" viewBox="0 0 24 24" fill="none" xmlns="http://www.w3.org/2000/svg">
<path d="M20.3204 10.4352L12.9783 10.4348C12.6541 10.4348 12.3913 10.6976 12.3913 11.0218V13.3672C12.3913 13.6914 12.6541 13.9542 12.9783 13.9542H17.1129C16.6602 15.1292 15.8151 16.1131 14.737 16.7384L16.5 19.7902C19.3281 18.1547 21 15.2849 21 12.0724C21 11.615 20.9663 11.288 20.8989 10.9198C20.8476 10.6401 20.6048 10.4352 20.3204 10.4352Z" fill="#167EE6"/>
<path d="M12 17.4783C9.97663 17.4783 8.21024 16.3727 7.26155 14.7368L4.20978 16.4958C5.7628 19.1874 8.67213 21 12 21C13.6326 21 15.173 20.5604 16.5 19.7944L16.5 19.7902L14.737 16.7384C13.9306 17.2061 12.9974 17.4783 12 17.4783Z" fill="#12B347"/>
<path d="M16.5 19.7944L16.5 19.7902L14.737 16.7384C13.9306 17.2061 12.9974 17.4783 12 17.4783V21C13.6326 21 15.173 20.5604 16.5 19.7944Z" fill="#0F993E"/>
<path d="M6.52174 12C6.52174 11.0027 6.79392 10.0696 7.26154 9.26319L4.20976 7.50418C3.43952 8.82701 3 10.3633 3 12C3 13.6367 3.43954 15.173 4.20978 16.4958L7.26155 14.7368C6.79394 13.9304 6.52174 12.9973 6.52174 12Z" fill="#FFD500"/>
<path d="M12 6.52174C13.3195 6.52174 14.5314 6.99059 15.4781 7.77046C15.7116 7.96283 16.0511 7.94895 16.265 7.73502L17.9268 6.07318C18.1695 5.83046 18.1523 5.43316 17.893 5.20823C16.3069 3.83225 14.2432 3 12 3C8.67212 3 5.76279 4.81255 4.20976 7.50418L7.26154 9.26319C8.21023 7.62727 9.97663 6.52174 12 6.52174Z" fill="#FF4B26"/>
<path d="M15.4781 7.77046C15.7116 7.96283 16.0511 7.94895 16.265 7.73502L17.9268 6.07318C18.1695 5.83046 18.1523 5.43316 17.893 5.20823C16.3069 3.83225 14.2432 3 12 3V6.52174C13.3195 6.52174 14.5314 6.99059 15.4781 7.77046Z" fill="#D93F21"/>
</svg>
