<svg width="25" height="24" viewBox="0 0 25 24" fill="none" xmlns="http://www.w3.org/2000/svg">
<path d="M22.1643 11.1044L19.1332 8.07329V4.57187C19.1332 3.93876 18.6202 3.42568 17.9861 3.42568C17.3535 3.42568 16.8405 3.93876 16.8405 4.57187V5.78063L14.5836 3.52366C13.4678 2.40843 11.5277 2.41041 10.4144 3.52568L2.83555 11.1044C2.38815 11.5527 2.38815 12.278 2.83555 12.7256C3.28315 13.1738 4.00992 13.1738 4.45736 12.7256L12.0355 5.14672C12.2824 4.90114 12.7175 4.90114 12.9631 5.14599L20.5425 12.7256C20.7673 12.9497 21.0603 13.0612 21.3532 13.0612C21.6468 13.0612 21.9403 12.9496 22.1643 12.7256C22.6119 12.2781 22.6119 11.5527 22.1643 11.1044Z" fill="#2E2E2E"/>
<path d="M12.8981 7.32246C12.6779 7.1024 12.3214 7.1024 12.1019 7.32246L5.43548 13.9869C5.33023 14.0921 5.27056 14.2357 5.27056 14.3856V19.2464C5.27056 20.387 6.19539 21.3118 7.33597 21.3118H10.6365V16.2004H14.3628V21.3118H17.6633C18.8039 21.3118 19.7287 20.387 19.7287 19.2465V14.3856C19.7287 14.2357 19.6696 14.0921 19.5638 13.9869L12.8981 7.32246Z" fill="#2E2E2E"/>
</svg>
