<svg width="24" height="24" viewBox="0 0 24 24" fill="none" xmlns="http://www.w3.org/2000/svg">
<path fill-rule="evenodd" clip-rule="evenodd" d="M7.24981 3.75H8.24981C8.66402 3.75 8.99981 4.08579 8.99981 4.5V5C8.99981 5.41421 8.66402 5.75 8.24981 5.75H7.24981C6.69752 5.75 6.24981 5.30229 6.24981 4.75C6.24981 4.19771 6.69752 3.75 7.24981 3.75ZM15.7498 3.75H16.7498C17.3021 3.75 17.7498 4.19771 17.7498 4.75C17.7498 5.30229 17.3021 5.75 16.7498 5.75H15.7498C15.3356 5.75 14.9998 5.41421 14.9998 5V4.5C14.9998 4.08579 15.3356 3.75 15.7498 3.75ZM11.9998 2C13.5186 2 14.7498 3.23121 14.7498 4.75C14.7498 6.26879 13.5186 7.5 11.9998 7.5C10.481 7.5 9.24981 6.26879 9.24981 4.75C9.24981 3.23121 10.481 2 11.9998 2ZM11.9998 3.5C11.3095 3.5 10.7498 4.05965 10.7498 4.75C10.7498 5.44035 11.3095 6 11.9998 6C12.6902 6 13.2498 5.44035 13.2498 4.75C13.2498 4.05965 12.6902 3.5 11.9998 3.5ZM11.9998 14.375C12.8282 14.375 13.4998 15.0466 13.4998 15.875V20.5C13.4998 21.3284 12.8282 22 11.9998 22C11.1714 22 10.4998 21.3284 10.4998 20.5V15.875C10.4998 15.0466 11.1714 14.375 11.9998 14.375ZM12.8672 8C15.2876 8 17.3208 9.8199 17.5881 12.2254L17.9337 15.3359C18.1624 17.3942 16.6792 19.2484 14.6208 19.4771C14.4832 19.4924 14.3449 19.5 14.2067 19.5H13.9997V17H14.2067C14.2528 17 14.2988 16.9975 14.3447 16.9924C15.0308 16.9161 15.5252 16.2981 15.4489 15.612L15.1034 12.5015C14.9768 11.3621 14.0137 10.5 12.8672 10.5H11.1325C9.98597 10.5 9.02283 11.3621 8.89622 12.5015L8.55062 15.612C8.54552 15.6578 8.54297 15.7039 8.54297 15.75C8.54297 16.4404 9.10262 17 9.79297 17H9.99972V19.5H9.79297C7.72191 19.5 6.04297 17.8211 6.04297 15.75C6.04297 15.6116 6.05063 15.4734 6.06591 15.3359L6.41151 12.2254C6.67879 9.8199 8.71209 8 11.1325 8H12.8672Z" fill="#2E2E2E"/>
</svg>
