<svg width="24" height="24" viewBox="0 0 24 24" fill="none" xmlns="http://www.w3.org/2000/svg">
<path d="M12.0368 0.705566C5.80884 0.705566 0.742676 5.77221 0.742676 11.9997C0.742676 18.2272 5.80884 23.2938 12.0368 23.2938C18.2647 23.2938 23.3309 18.2272 23.3309 11.9997C23.3309 5.77221 18.2647 0.705566 12.0368 0.705566ZM16.5267 12.3954L9.93847 16.6307C9.86126 16.6807 9.7721 16.7056 9.68387 16.7056C9.60666 16.7056 9.52853 16.6863 9.45869 16.6481C9.30701 16.5654 9.21326 16.4073 9.21326 16.235V7.76439C9.21326 7.59207 9.30701 7.43395 9.45869 7.35123C9.60759 7.26943 9.79416 7.27446 9.93847 7.3687L16.5267 11.604C16.6609 11.6904 16.7427 11.8398 16.7427 11.9997C16.7427 12.1596 16.6609 12.3089 16.5267 12.3954Z" fill="#EB2D4B"/>
</svg>
