<svg width="25" height="24" viewBox="0 0 25 24" fill="none" xmlns="http://www.w3.org/2000/svg">
<path d="M16.0747 7.28774C15.6867 6.89542 15.0545 6.89047 14.6605 7.27671L7.26878 14.5822L4.05555 11.2557C3.67231 10.8563 3.03784 10.8431 2.63845 11.2264C2.23901 11.6096 2.2259 12.2441 2.60915 12.6435C2.61088 12.6453 2.61258 12.647 2.61431 12.6488L6.53216 16.709C6.71966 16.9003 6.97592 17.0086 7.24377 17.0096H7.2548C7.51757 17.0088 7.76954 16.9048 7.95638 16.72L16.0656 8.70193C16.4574 8.31339 16.4614 7.68127 16.0747 7.28774Z" fill="#2E2E2E"/>
<path d="M12.5457 16.7089C12.7327 16.8997 12.9881 17.008 13.2553 17.0096H13.2663C13.5291 17.0088 13.7811 16.9048 13.9679 16.72L22.0772 8.70189C22.4448 8.288 22.4072 7.65453 21.9934 7.28696C21.6182 6.95373 21.0544 6.94935 20.674 7.27667L13.2853 14.5821L13.0217 14.3085C12.6385 13.9091 12.0041 13.8959 11.6046 14.2792C11.2052 14.6624 11.1921 15.2968 11.5753 15.6963C11.577 15.6981 11.5788 15.6999 11.5805 15.7017L12.5457 16.7089Z" fill="#2E2E2E"/>
</svg>
