<svg width="24" height="24" viewBox="0 0 24 24" fill="none" xmlns="http://www.w3.org/2000/svg">
<path d="M15.3969 2H8.64031C7.49163 2 6.51562 2.93661 6.51562 4.08497V19.9174C6.51562 21.0658 7.47098 22 8.61966 22L15.3874 21.9927C16.5359 21.9927 17.4755 21.0583 17.4755 19.9098L17.4854 4.08386C17.4852 2.93137 16.5502 2 15.3969 2ZM11.0425 3.25003H13.0028C13.175 3.25003 13.3153 3.38982 13.3153 3.5625C13.3153 3.73517 13.175 3.87497 13.0028 3.87497H11.0425C10.8698 3.87497 10.73 3.73517 10.73 3.5625C10.73 3.38982 10.8698 3.25003 11.0425 3.25003ZM9.86461 3.34947C9.98041 3.23383 10.1912 3.23224 10.3069 3.34947C10.3648 3.4073 10.3992 3.48847 10.3992 3.57139C10.3992 3.65273 10.3648 3.73374 10.3069 3.79173C10.2492 3.84971 10.1677 3.88386 10.0865 3.88386C10.0038 3.88386 9.92418 3.84971 9.86461 3.79173C9.80694 3.7339 9.77406 3.65273 9.77406 3.57139C9.7739 3.48847 9.80694 3.4073 9.86461 3.34947ZM11.9596 21.3806C11.4439 21.3806 11.0246 20.9609 11.0246 20.4454C11.0246 19.9298 11.4439 19.5103 11.9596 19.5103C12.4752 19.5103 12.8946 19.9298 12.8946 20.4454C12.8946 20.9609 12.4751 21.3806 11.9596 21.3806ZM16.5154 18.8747H7.60934V4.96884H16.5154V18.8747Z" fill="#2E2E2E"/>
</svg>
