<svg width="24" height="25" viewBox="0 0 24 25" fill="none" xmlns="http://www.w3.org/2000/svg">
<path d="M11.9536 4.5C16.4018 4.5 20.0028 8.10098 20.0028 12.5492M11.9536 7.15955C14.9191 7.15955 17.3433 9.58374 17.3433 12.5492M15.5781 14.3144C15.3192 14.0555 14.8956 14.0555 14.6602 14.3144L13.1774 15.7737C12.4949 16.4562 10.9651 15.9855 9.74121 14.7616C8.51735 13.5378 8.04664 11.9844 8.72917 11.3254L10.1884 9.86616C10.4473 9.60727 10.4473 9.18363 10.1884 8.94827L6.82277 5.55911C6.56388 5.30022 6.14024 5.30022 5.90488 5.55911L4.91637 6.54762C2.93937 8.50109 4.25737 13.02 7.88189 16.6209C11.4829 20.2219 16.0017 21.5635 17.9787 19.5865L18.9673 18.598C19.2261 18.3391 19.2261 17.9154 18.9673 17.6801L15.5781 14.3144Z" stroke="#2E2E2E" stroke-width="1.3" stroke-miterlimit="10" stroke-linecap="round" stroke-linejoin="round"/>
</svg>
