<svg width="24" height="24" viewBox="0 0 24 24" fill="none" xmlns="http://www.w3.org/2000/svg">
<path d="M16.186 21H4.46511C4.07669 20.9995 3.7043 20.845 3.42964 20.5703C3.15498 20.2957 3.00047 19.9233 3 19.5349V4.46511C3.00047 4.07669 3.15498 3.7043 3.42964 3.42964C3.7043 3.15498 4.07669 3.00047 4.46511 3H16.186C16.5745 3.00047 16.9468 3.15498 17.2215 3.42964C17.4962 3.7043 17.6507 4.07669 17.6511 4.46511V13.6744C17.6511 13.8409 17.585 14.0006 17.4672 14.1184C17.3495 14.2362 17.1898 14.3023 17.0232 14.3023C16.8567 14.3023 16.697 14.2362 16.5792 14.1184C16.4615 14.0006 16.3953 13.8409 16.3953 13.6744V4.46511C16.3947 4.40981 16.3724 4.35695 16.3333 4.31784C16.2942 4.27872 16.2413 4.25646 16.186 4.25581H4.46511C4.40981 4.25646 4.35695 4.27872 4.31784 4.31784C4.27872 4.35695 4.25646 4.40981 4.25581 4.46511V19.5349C4.25646 19.5902 4.27872 19.643 4.31784 19.6821C4.35695 19.7212 4.40981 19.7435 4.46511 19.7442H16.186C16.3433 19.6816 16.5189 19.6828 16.6753 19.7477C16.8317 19.8125 16.9567 19.9357 17.0236 20.0912C17.0562 20.1661 17.0736 20.2467 17.0747 20.3284C17.0758 20.41 17.0607 20.4911 17.0301 20.5668C16.9995 20.6425 16.9542 20.7114 16.8967 20.7694C16.8393 20.8275 16.7708 20.8734 16.6954 20.9047C16.5333 20.9688 16.3603 21.0012 16.186 21Z" fill="#2E2E2E"/>
<path d="M14.093 7.60464H6.55813C6.3916 7.60464 6.23189 7.53849 6.11414 7.42073C5.99638 7.30298 5.93023 7.14327 5.93023 6.97674C5.93023 6.81021 5.99638 6.6505 6.11414 6.53274C6.23189 6.41498 6.3916 6.34883 6.55813 6.34883H14.093C14.2595 6.34883 14.4192 6.41498 14.537 6.53274C14.6548 6.6505 14.7209 6.81021 14.7209 6.97674C14.7209 7.14327 14.6548 7.30298 14.537 7.42073C14.4192 7.53849 14.2595 7.60464 14.093 7.60464Z" fill="#2E2E2E"/>
<path d="M14.093 10.9535H6.55813C6.3916 10.9535 6.23189 10.8873 6.11414 10.7696C5.99638 10.6518 5.93023 10.4921 5.93023 10.3256C5.93023 10.159 5.99638 9.99933 6.11414 9.88157C6.23189 9.76382 6.3916 9.69766 6.55813 9.69766H14.093C14.2595 9.69766 14.4192 9.76382 14.537 9.88157C14.6548 9.99933 14.7209 10.159 14.7209 10.3256C14.7209 10.4921 14.6548 10.6518 14.537 10.7696C14.4192 10.8873 14.2595 10.9535 14.093 10.9535Z" fill="#2E2E2E"/>
<path d="M12 14.3023H6.55813C6.3916 14.3023 6.23189 14.2362 6.11414 14.1184C5.99638 14.0006 5.93023 13.8409 5.93023 13.6744C5.93023 13.5079 5.99638 13.3482 6.11414 13.2304C6.23189 13.1126 6.3916 13.0465 6.55813 13.0465H12C12.1665 13.0465 12.3262 13.1126 12.444 13.2304C12.5617 13.3482 12.6279 13.5079 12.6279 13.6744C12.6279 13.8409 12.5617 14.0006 12.444 14.1184C12.3262 14.2362 12.1665 14.3023 12 14.3023Z" fill="#2E2E2E"/>
<path d="M11.1628 17.6511H6.55813C6.3916 17.6511 6.23189 17.585 6.11414 17.4672C5.99638 17.3495 5.93023 17.1898 5.93023 17.0232C5.93023 16.8567 5.99638 16.697 6.11414 16.5792C6.23189 16.4615 6.3916 16.3953 6.55813 16.3953H11.1628C11.3293 16.3953 11.489 16.4615 11.6068 16.5792C11.7245 16.697 11.7907 16.8567 11.7907 17.0232C11.7907 17.1898 11.7245 17.3495 11.6068 17.4672C11.489 17.585 11.3293 17.6511 11.1628 17.6511Z" fill="#2E2E2E"/>
<path d="M17.0232 21C16.2367 21 15.4678 20.7667 14.8139 20.3298C14.1599 19.8928 13.6502 19.2717 13.3492 18.5451C13.0482 17.8184 12.9695 17.0188 13.1229 16.2474C13.2763 15.476 13.6551 14.7674 14.2113 14.2113C14.7674 13.6551 15.476 13.2763 16.2474 13.1229C17.0188 12.9695 17.8184 13.0482 18.5451 13.3492C19.2717 13.6502 19.8928 14.1599 20.3298 14.8139C20.7667 15.4678 21 16.2367 21 17.0232C20.9988 18.0776 20.5794 19.0884 19.8339 19.8339C19.0884 20.5794 18.0776 20.9988 17.0232 21ZM17.0232 14.3023C16.4851 14.3023 15.959 14.4619 15.5116 14.7609C15.0641 15.0598 14.7154 15.4848 14.5094 15.982C14.3035 16.4792 14.2496 17.0262 14.3546 17.5541C14.4596 18.0819 14.7187 18.5667 15.0992 18.9472C15.4798 19.3277 15.9646 19.5869 16.4924 19.6919C17.0202 19.7969 17.5673 19.743 18.0645 19.537C18.5617 19.3311 18.9866 18.9823 19.2856 18.5349C19.5846 18.0874 19.7442 17.5614 19.7442 17.0232C19.7433 16.3019 19.4564 15.6103 18.9463 15.1002C18.4362 14.5901 17.7446 14.3031 17.0232 14.3023Z" fill="#2E2E2E"/>
<path d="M16.6046 18.4883C16.5222 18.4884 16.4405 18.4722 16.3643 18.4407C16.2881 18.4091 16.2189 18.3628 16.1607 18.3044L15.3235 17.4672C15.2648 17.409 15.2182 17.3397 15.1864 17.2635C15.1546 17.1872 15.1381 17.1054 15.138 17.0228C15.1378 16.9401 15.154 16.8583 15.1855 16.7819C15.2171 16.7055 15.2634 16.6361 15.3219 16.5777C15.3803 16.5192 15.4497 16.4729 15.5261 16.4413C15.6024 16.4098 15.6843 16.3936 15.7669 16.3938C15.8496 16.3939 15.9314 16.4104 16.0076 16.4422C16.0839 16.4741 16.1531 16.5206 16.2114 16.5793L16.6046 16.9725L17.8351 15.7421C17.953 15.625 18.1125 15.5595 18.2786 15.5598C18.4447 15.5601 18.6039 15.6262 18.7214 15.7437C18.8388 15.8612 18.905 16.0204 18.9053 16.1865C18.9056 16.3526 18.84 16.5121 18.723 16.63L17.0486 18.3044C16.9903 18.3628 16.9211 18.4091 16.845 18.4407C16.7688 18.4722 16.6871 18.4884 16.6046 18.4883Z" fill="#2E2E2E"/>
</svg>
