<svg width="25" height="24" viewBox="0 0 25 24" fill="none" xmlns="http://www.w3.org/2000/svg">
<path fill-rule="evenodd" clip-rule="evenodd" d="M7.79289 11.8954C7.79175 11.7682 7.7404 11.6465 7.65002 11.557C7.55964 11.4674 7.43754 11.4171 7.31029 11.4171C7.18305 11.4171 7.06095 11.4674 6.97057 11.557C6.88019 11.6465 6.82884 11.7682 6.8277 11.8954V14.3176C6.82712 14.3813 6.83918 14.4445 6.86318 14.5036C6.88717 14.5626 6.92263 14.6164 6.9675 14.6616C7.01237 14.7069 7.06576 14.7428 7.1246 14.7674C7.18344 14.7919 7.24655 14.8045 7.31029 14.8045C7.37404 14.8045 7.43715 14.7919 7.49599 14.7674C7.55482 14.7428 7.60822 14.7069 7.65309 14.6616C7.69796 14.6164 7.73341 14.5626 7.75741 14.5036C7.7814 14.4445 7.79346 14.3813 7.79289 14.3176V11.8954ZM2.99281 7.41202H6.8277V9.86827C6.82712 9.93201 6.83918 9.99523 6.86318 10.0543C6.88717 10.1133 6.92263 10.1671 6.9675 10.2123C7.01237 10.2576 7.06576 10.2935 7.1246 10.3181C7.18344 10.3426 7.24655 10.3552 7.31029 10.3552C7.37404 10.3552 7.43715 10.3426 7.49599 10.3181C7.55482 10.2935 7.60822 10.2576 7.65309 10.2123C7.69796 10.1671 7.73341 10.1133 7.75741 10.0543C7.7814 9.99523 7.79346 9.93201 7.79289 9.86827V7.41202H21.31C21.529 7.41212 21.739 7.49917 21.8938 7.65404C22.0487 7.8089 22.1357 8.01891 22.1358 8.23792V10.3221L21.9991 10.3777C21.4559 10.5979 20.9907 10.9753 20.6633 11.4615C20.3358 11.9477 20.1608 12.5205 20.1608 13.1067C20.1608 13.6929 20.3358 14.2657 20.6633 14.7519C20.9907 15.2381 21.4559 15.6154 21.9991 15.8357L22.1358 15.8912V17.9753C22.1357 18.1943 22.0487 18.4043 21.8938 18.5592C21.739 18.7141 21.529 18.8012 21.31 18.8013H7.79289V16.3448C7.79346 16.281 7.7814 16.2178 7.75741 16.1587C7.73341 16.0997 7.69796 16.046 7.65309 16.0007C7.60822 15.9554 7.55482 15.9195 7.49599 15.8949C7.43715 15.8704 7.37404 15.8578 7.31029 15.8578C7.24655 15.8578 7.18344 15.8704 7.1246 15.8949C7.06576 15.9195 7.01237 15.9554 6.9675 16.0007C6.92263 16.046 6.88717 16.0997 6.86318 16.1587C6.83918 16.2178 6.82712 16.281 6.8277 16.3448V18.8012H2.99176C2.77278 18.801 2.56285 18.7139 2.40803 18.559C2.25322 18.4041 2.16618 18.1942 2.16602 17.9752V15.8912L2.30273 15.8356C2.84516 15.6142 3.30952 15.2365 3.6368 14.7506C3.96408 14.2646 4.13949 13.6924 4.14074 13.1065C4.13943 12.5207 3.964 11.9485 3.63673 11.4626C3.30946 10.9767 2.84512 10.599 2.30273 10.3776L2.16602 10.3221V8.23792C2.16617 8.01947 2.2528 7.80996 2.40698 7.65521C2.56116 7.50045 2.77034 7.41303 2.98879 7.41206L2.99281 7.41202ZM20.4129 1.24573C20.6193 1.17308 20.846 1.18503 21.0436 1.27898C21.2412 1.37293 21.3936 1.54124 21.4676 1.74718L22.166 3.71057L22.0557 3.80878C21.7209 4.10897 21.4588 4.48134 21.2891 4.89773C21.1194 5.31413 21.0466 5.76366 21.0762 6.21233L21.092 6.44671H5.78898L20.4129 1.24573Z" fill="#2E2E2E"/>
</svg>
