<svg width="25" height="24" viewBox="0 0 25 24" fill="none" xmlns="http://www.w3.org/2000/svg">
<path fill-rule="evenodd" clip-rule="evenodd" d="M10.102 6.36147C11.1192 4.54618 13.6621 4.54618 14.6792 6.36146L20.0326 15.9156C21.0498 17.7309 19.7784 20 17.744 20H7.0372C5.0029 20 3.73146 17.7309 4.74861 15.9156L10.102 6.36147ZM13.671 6.96125C13.1019 5.94568 11.6793 5.94568 11.1103 6.96125L5.75684 16.5154C5.18779 17.531 5.8991 18.8004 7.0372 18.8004H17.744C18.8821 18.8004 19.5935 17.531 19.0244 16.5154L13.671 6.96125Z" fill="#2E2E2E"/>
<path d="M11.574 9.94796C11.559 9.47266 11.9288 9.07892 12.3904 9.07892C12.8521 9.07892 13.222 9.473 13.2067 9.9485L13.0857 13.6926C13.0732 14.0797 12.7651 14.3868 12.3892 14.3868C12.0131 14.3868 11.7049 14.0794 11.6926 13.6921L11.574 9.94796Z" fill="#2E2E2E"/>
<path d="M13.2496 16.4392C13.2496 16.928 12.865 17.3242 12.3906 17.3242C11.9162 17.3242 11.5317 16.928 11.5317 16.4392C11.5317 15.9504 11.9162 15.5541 12.3906 15.5541C12.865 15.5541 13.2496 15.9504 13.2496 16.4392Z" fill="#2E2E2E"/>
</svg>
