<svg width="24" height="24" viewBox="0 0 24 24" fill="none" xmlns="http://www.w3.org/2000/svg">
<path fill-rule="evenodd" clip-rule="evenodd" d="M13.7181 5.96552C12.9545 4.67816 11.0455 4.67816 10.2819 5.96552L4.26874 16.1034C3.50516 17.3908 4.45964 19 5.9868 19H18.0132C19.5404 19 20.4948 17.3908 19.7313 16.1034L13.7181 5.96552ZM11.041 9.23083C11.023 8.70332 11.4574 8.26616 11.9997 8.26616C12.5422 8.26616 12.9767 8.7037 12.9583 9.23144L12.8172 13.2887C12.8023 13.7184 12.4401 14.0593 11.9983 14.0593C11.5564 14.0593 11.1941 13.7181 11.1794 13.2882L11.041 9.23083ZM13.091 16.3509C13.091 16.9374 12.6025 17.4129 11.9999 17.4129C11.3973 17.4129 10.9088 16.9374 10.9088 16.3509C10.9088 15.7643 11.3973 15.2888 11.9999 15.2888C12.6025 15.2888 13.091 15.7643 13.091 16.3509Z" fill="#2E2E2E"/>
</svg>
