<svg width="24" height="25" viewBox="0 0 24 25" fill="none" xmlns="http://www.w3.org/2000/svg">
<path d="M18.6977 13.9651H17.4419C17.2753 13.9651 17.1156 13.8989 16.9979 13.7812C16.8801 13.6634 16.814 13.5037 16.814 13.3372C16.814 13.1706 16.8801 13.0109 16.9979 12.8932C17.1156 12.7754 17.2753 12.7093 17.4419 12.7093H18.6977C18.9751 12.7088 19.241 12.5984 19.4372 12.4022C19.6333 12.2061 19.7437 11.9402 19.7442 11.6627V6.63948C19.7437 6.36207 19.6333 6.09614 19.4372 5.89998C19.241 5.70381 18.9751 5.59342 18.6977 5.59297H5.30233C5.02491 5.59342 4.75898 5.70381 4.56282 5.89998C4.36666 6.09614 4.25626 6.36207 4.25581 6.63948V11.6627C4.25626 11.9402 4.36666 12.2061 4.56282 12.4022C4.75898 12.5984 5.02491 12.7088 5.30233 12.7093H6.55814C6.72467 12.7093 6.88438 12.7754 7.00214 12.8932C7.11989 13.0109 7.18605 13.1706 7.18605 13.3372C7.18605 13.5037 7.11989 13.6634 7.00214 13.7812C6.88438 13.8989 6.72467 13.9651 6.55814 13.9651H5.30233C4.69185 13.9646 4.1065 13.7219 3.67483 13.2902C3.24315 12.8586 3.00044 12.2732 3 11.6627V6.63948C3.00044 6.02901 3.24315 5.44366 3.67483 5.01198C4.1065 4.58031 4.69185 4.3376 5.30233 4.33716H18.6977C19.3082 4.3376 19.8935 4.58031 20.3252 5.01198C20.7568 5.44366 20.9996 6.02901 21 6.63948V11.6627C20.9996 12.2732 20.7568 12.8586 20.3252 13.2902C19.8935 13.7219 19.3082 13.9646 18.6977 13.9651Z" fill="#2E2E2E"/>
<path d="M15.7674 20.6627H8.23256C7.62208 20.6623 7.03673 20.4196 6.60506 19.9879C6.17338 19.5562 5.93068 18.9709 5.93023 18.3604V8.3139C5.93023 8.14737 5.99639 7.98766 6.11414 7.8699C6.2319 7.75215 6.39161 7.686 6.55814 7.686H17.4419C17.6084 7.686 17.7681 7.75215 17.8859 7.8699C18.0036 7.98766 18.0698 8.14737 18.0698 8.3139V18.3604C18.0693 18.9709 17.8266 19.5562 17.3949 19.9879C16.9633 20.4196 16.3779 20.6623 15.7674 20.6627ZM7.18605 8.94181V18.3604C7.18649 18.6378 7.29689 18.9038 7.49305 19.0999C7.68921 19.2961 7.95514 19.4065 8.23256 19.4069H15.7674C16.0449 19.4065 16.3108 19.2961 16.5069 19.0999C16.7031 18.9038 16.8135 18.6378 16.814 18.3604V8.94181H7.18605Z" fill="#2E2E2E"/>
<path d="M12 18.1511C11.9176 18.1513 11.8359 18.1351 11.7597 18.1035C11.6835 18.0719 11.6144 18.0254 11.5563 17.9669L9.04468 15.4553C8.93376 15.3362 8.87338 15.1788 8.87625 15.0161C8.87912 14.8535 8.94502 14.6983 9.06006 14.5832C9.17511 14.4682 9.33031 14.4023 9.49298 14.3994C9.65565 14.3965 9.81309 14.4569 9.93212 14.5678L12 16.6349L14.0679 14.5678C14.187 14.4569 14.3444 14.3965 14.5071 14.3994C14.6697 14.4023 14.8249 14.4682 14.94 14.5832C15.055 14.6983 15.1209 14.8535 15.1238 15.0161C15.1267 15.1788 15.0663 15.3362 14.9554 15.4553L12.4437 17.9669C12.3857 18.0254 12.3165 18.0719 12.2404 18.1035C12.1642 18.1351 12.0825 18.1513 12 18.1511Z" fill="#2E2E2E"/>
<path d="M12 18.1511C11.8335 18.1511 11.6741 18.0847 11.5563 17.9669C11.4385 17.8491 11.3721 17.6897 11.3721 17.5232V11.6627C11.3721 11.4962 11.4382 11.3365 11.556 11.2187C11.6738 11.101 11.8335 11.0348 12 11.0348C12.1665 11.0348 12.3262 11.101 12.444 11.2187C12.5618 11.3365 12.6279 11.4962 12.6279 11.6627V17.5232C12.6279 17.6897 12.5615 17.8491 12.4437 17.9669C12.326 18.0847 12.1666 18.1511 12 18.1511Z" fill="#2E2E2E"/>
<path d="M18.2791 8.94181H5.72093C5.5544 8.94181 5.39469 8.87566 5.27693 8.7579C5.15918 8.64014 5.09302 8.48043 5.09302 8.3139C5.09302 8.14737 5.15918 7.98766 5.27693 7.8699C5.39469 7.75215 5.5544 7.686 5.72093 7.686H18.2791C18.4456 7.686 18.6053 7.75215 18.7231 7.8699C18.8408 7.98766 18.907 8.14737 18.907 8.3139C18.907 8.48043 18.8408 8.64014 18.7231 8.7579C18.6053 8.87566 18.4456 8.94181 18.2791 8.94181Z" fill="#2E2E2E"/>
</svg>
